<svg width="33" height="35" viewBox="0 0 33 35" fill="none" xmlns="http://www.w3.org/2000/svg">
<g clip-path="url(#clip0_65_7)" filter="url(#filter0_d_65_7)">
<path d="M13.2564 22.4331C7.35897 24.2166 7.35897 19.4607 5 18.8662L13.2564 22.4331ZM21.5128 26V21.3987C21.5571 20.8318 21.4811 20.2619 21.2899 19.7268C21.0988 19.1918 20.7968 18.7039 20.4041 18.2955C24.1077 17.8794 28 16.4645 28 9.97283C27.9997 8.31284 27.3663 6.71651 26.2308 5.51423C26.7684 4.06193 26.7304 2.45664 26.1246 1.03186C26.1246 1.03186 24.7328 0.615717 21.5128 2.79152C18.8094 2.05296 15.9598 2.05296 13.2564 2.79152C10.0364 0.615717 8.64462 1.03186 8.64462 1.03186C8.0388 2.45664 8.00079 4.06193 8.53846 5.51423C7.39451 6.72542 6.76041 8.33618 6.76923 10.0085C6.76923 16.4527 10.6615 17.8675 14.3651 18.3312C13.9771 18.7354 13.6778 19.2175 13.4868 19.746C13.2957 20.2745 13.2173 20.8376 13.2564 21.3987V26" fill="#4A50BB"/>
<path d="M13.2566 22.4331L13.5461 23.3903L13.6532 21.5151L13.2566 22.4331ZM5.0002 18.8662L5.24457 17.8966C4.73925 17.7692 4.22084 18.0513 4.0533 18.5447C3.88575 19.0382 4.12523 19.5776 4.60361 19.7842L5.0002 18.8662ZM21.513 26V27H22.513V26H21.513ZM21.513 21.3987L20.5161 21.3209L20.513 21.3598V21.3987H21.513ZM20.4043 18.2955L20.2926 17.3018L18.2788 17.5281L19.6835 18.9887L20.4043 18.2955ZM28.0002 9.97283H29.0002V9.97265L28.0002 9.97283ZM26.231 5.51423L25.2932 5.16704L25.0776 5.74939L25.504 6.20086L26.231 5.51423ZM26.1248 1.03186L27.0451 0.640563C26.9287 0.366748 26.6963 0.158998 26.4113 0.0737645L26.1248 1.03186ZM21.513 2.79152L21.2495 3.75616L21.6924 3.87718L22.0729 3.62009L21.513 2.79152ZM13.2566 2.79152L12.6967 3.62009L13.0772 3.87718L13.5201 3.75616L13.2566 2.79152ZM8.64482 1.03186L8.35835 0.0737646L7.90834 0.208315L7.72455 0.640563L8.64482 1.03186ZM8.53866 5.51423L9.26566 6.20087L9.69206 5.74941L9.47646 5.16704L8.53866 5.51423ZM6.76943 10.0085H7.76944L7.76942 10.0032L6.76943 10.0085ZM14.3653 18.3312L15.0867 19.0238L16.4665 17.5865L14.4896 17.339L14.3653 18.3312ZM13.2566 21.3987H14.2566V21.3639L14.2542 21.3291L13.2566 21.3987ZM13.2566 26H12.2566V27H13.2566V26ZM12.9671 21.4759C11.6072 21.8872 10.6869 21.8911 10.0399 21.7385C9.40557 21.5889 8.93698 21.2661 8.51141 20.8371C8.29311 20.6171 8.0901 20.3731 7.87818 20.1055C7.67854 19.8534 7.44523 19.5463 7.21993 19.2797C6.76552 18.742 6.15171 18.1252 5.24457 17.8966L4.75583 19.8359C5.02818 19.9046 5.29899 20.1052 5.69233 20.5706C5.89091 20.8056 6.07226 21.0466 6.31032 21.3472C6.5361 21.6323 6.79383 21.9456 7.09155 22.2457C7.69803 22.857 8.48265 23.426 9.58068 23.6851C10.666 23.9411 11.9573 23.8708 13.5461 23.3903L12.9671 21.4759ZM4.60361 19.7842L12.86 23.3511L13.6532 21.5151L5.39679 17.9482L4.60361 19.7842ZM22.513 26V21.3987H20.513V26H22.513ZM22.51 21.4765C22.5652 20.7693 22.4704 20.0582 22.2318 19.3904L20.3484 20.0633C20.4921 20.4655 20.5493 20.8943 20.5161 21.3209L22.51 21.4765ZM22.2318 19.3904C21.9932 18.7225 21.6161 18.1129 21.1251 17.6024L19.6835 18.9887C19.9779 19.2948 20.2047 19.661 20.3484 20.0633L22.2318 19.3904ZM20.516 19.2893C22.4249 19.0748 24.57 18.589 26.2377 17.1754C27.9526 15.7218 29.0002 13.4323 29.0002 9.97283H27.0002C27.0002 13.0051 26.1016 14.6689 24.9445 15.6497C23.7402 16.6705 22.0873 17.1002 20.2926 17.3018L20.516 19.2893ZM29.0002 9.97265C28.9999 8.05847 28.2695 6.21625 26.958 4.82761L25.504 6.20086C26.4634 7.21676 26.9999 8.56721 27.0002 9.97301L29.0002 9.97265ZM27.1688 5.86142C27.795 4.16981 27.7508 2.30032 27.0451 0.640563L25.2045 1.42315C25.7105 2.61297 25.7423 3.95404 25.2932 5.16704L27.1688 5.86142ZM26.1248 1.03186C26.4113 0.0737644 26.4103 0.0734738 26.4093 0.0731825C26.409 0.0730835 26.408 0.0727918 26.4073 0.0725946C26.406 0.0722009 26.4046 0.0718033 26.4033 0.0714022C26.4005 0.0705999 26.3976 0.0697833 26.3947 0.068954C26.3888 0.0672953 26.3825 0.065586 26.3759 0.063838C26.3627 0.0603418 26.348 0.0566937 26.3318 0.05299C26.2995 0.0455797 26.2614 0.0379654 26.2174 0.0309019C26.1295 0.0167578 26.0188 0.00493381 25.8848 0.00121644C25.6162 -0.00623366 25.2589 0.0189941 24.808 0.1199C23.9081 0.321296 22.6406 0.822726 20.9531 1.96294L22.0729 3.62009C23.6055 2.58451 24.6439 2.20611 25.2448 2.07163C25.5443 2.00459 25.7362 1.99787 25.8293 2.00045C25.8761 2.00175 25.8993 2.00543 25.9 2.00555C25.9004 2.00561 25.8954 2.00481 25.885 2.00244C25.8798 2.00125 25.8733 1.99967 25.8655 1.99762C25.8616 1.99659 25.8574 1.99545 25.8529 1.99417C25.8506 1.99353 25.8483 1.99286 25.8459 1.99216C25.8447 1.99181 25.8434 1.99145 25.8422 1.99108C25.8415 1.9909 25.8406 1.99061 25.8403 1.99052C25.8393 1.99024 25.8384 1.98995 26.1248 1.03186ZM21.7766 1.82687C18.9007 1.04118 15.869 1.04118 12.9931 1.82687L13.5201 3.75616C16.051 3.06474 18.7186 3.06474 21.2495 3.75616L21.7766 1.82687ZM13.8165 1.96294C12.1291 0.822726 10.8615 0.321296 9.9616 0.1199C9.5107 0.0189941 9.15339 -0.00623366 8.88486 0.00121644C8.75087 0.00493381 8.64017 0.0167578 8.55218 0.0309019C8.50825 0.0379654 8.47015 0.0455797 8.43782 0.0529901C8.42166 0.0566937 8.40696 0.0603418 8.39372 0.0638381C8.38709 0.065586 8.38084 0.0672954 8.37494 0.0689541C8.37199 0.0697834 8.36914 0.0706 8.36637 0.0714023C8.36499 0.0718034 8.36363 0.072201 8.3623 0.0725947C8.36163 0.0727918 8.36064 0.0730835 8.36031 0.0731826C8.35933 0.0734739 8.35835 0.0737645 8.64482 1.03186C8.93128 1.98995 8.93031 1.99024 8.92936 1.99052C8.92904 1.99061 8.92809 1.9909 8.92746 1.99108C8.92621 1.99145 8.92498 1.99181 8.92377 1.99216C8.92134 1.99286 8.919 1.99353 8.91673 1.99417C8.9122 1.99545 8.90799 1.99659 8.9041 1.99762C8.89631 1.99967 8.88982 2.00125 8.88464 2.00244C8.87427 2.00481 8.86922 2.00561 8.86963 2.00555C8.87034 2.00543 8.89352 2.00175 8.94033 2.00045C9.03339 1.99787 9.22528 2.00459 9.52483 2.07163C10.1258 2.20611 11.1642 2.58451 12.6967 3.62009L13.8165 1.96294ZM7.72455 0.640563C7.01883 2.30032 6.97459 4.16981 7.60087 5.86142L9.47646 5.16704C9.02738 3.95404 9.05918 2.61297 9.56508 1.42315L7.72455 0.640563ZM7.81166 4.82759C6.49038 6.22653 5.75927 8.08539 5.76944 10.0138L7.76942 10.0032C7.76195 8.58698 8.29903 7.22432 9.26566 6.20087L7.81166 4.82759ZM5.76943 10.0085C5.76943 13.4474 6.81898 15.7234 8.53194 17.1754C10.1961 18.586 12.3372 19.0851 14.2411 19.3235L14.4896 17.339C12.6899 17.1136 11.033 16.6735 9.82512 15.6497C8.66603 14.6672 7.76943 13.0138 7.76943 10.0085H5.76943ZM13.6439 17.6387C13.1587 18.1441 12.7849 18.7464 12.5465 19.4061L14.4274 20.0859C14.571 19.6886 14.7958 19.3267 15.0867 19.0238L13.6439 17.6387ZM12.5465 19.4061C12.3081 20.0657 12.2102 20.7684 12.259 21.4683L14.2542 21.3291C14.2247 20.9069 14.2838 20.4832 14.4274 20.0859L12.5465 19.4061ZM12.2566 21.3987V26H14.2566V21.3987H12.2566ZM13.2566 27H21.513V25H13.2566V27Z" fill="#4A50BB"/>
</g>
<defs>
<filter id="filter0_d_65_7" x="0" y="0" width="33" height="35" filterUnits="userSpaceOnUse" color-interpolation-filters="sRGB">
<feFlood flood-opacity="0" result="BackgroundImageFix"/>
<feColorMatrix in="SourceAlpha" type="matrix" values="0 0 0 0 0 0 0 0 0 0 0 0 0 0 0 0 0 0 127 0" result="hardAlpha"/>
<feOffset dy="4"/>
<feGaussianBlur stdDeviation="2"/>
<feComposite in2="hardAlpha" operator="out"/>
<feColorMatrix type="matrix" values="0 0 0 0 0 0 0 0 0 0 0 0 0 0 0 0 0 0 0.25 0"/>
<feBlend mode="normal" in2="BackgroundImageFix" result="effect1_dropShadow_65_7"/>
<feBlend mode="normal" in="SourceGraphic" in2="effect1_dropShadow_65_7" result="shape"/>
</filter>
<clipPath id="clip0_65_7">
<rect width="25" height="27" fill="white" transform="translate(4)"/>
</clipPath>
</defs>
</svg>
