<svg width="60" height="60" viewBox="0 0 60 60" fill="none" xmlns="http://www.w3.org/2000/svg">
<g clip-path="url(#clip0_41_307)">
<path fill-rule="evenodd" clip-rule="evenodd" d="M20.1485 39.02V42.3818H20.5948H21.041V39.02V35.6584H20.5948H20.1485V39.02ZM23.1691 36.4389V37.2191H22.7572C22.5055 37.2191 22.3453 37.2424 22.3453 37.2791C22.3453 37.3122 22.2979 37.3392 22.2398 37.3392C22.1819 37.3392 22.1141 37.3731 22.0892 37.4143C22.0643 37.4554 22.0027 37.5417 21.9523 37.6058C21.7843 37.8185 21.7274 37.9227 21.7274 38.0181C21.7274 38.0701 21.712 38.1294 21.6931 38.1496C21.6743 38.17 21.6589 38.2393 21.6589 38.3033C21.6589 38.3673 21.6434 38.4198 21.6245 38.4198C21.6056 38.4198 21.5902 38.5384 21.5902 38.6834C21.5902 38.8626 21.5737 38.9584 21.5387 38.9817C21.4961 39.0103 21.4871 39.1687 21.4871 39.8904C21.4871 40.6124 21.4961 40.7708 21.5387 40.7994C21.5722 40.822 21.5902 40.9151 21.5902 41.0675C21.5902 41.1961 21.6056 41.3013 21.6245 41.3013C21.6434 41.3013 21.6589 41.3689 21.6589 41.4513C21.6589 41.534 21.6743 41.6014 21.6931 41.6014C21.712 41.6014 21.7274 41.6455 21.7274 41.6995C21.7274 41.8065 21.8803 42.0623 21.9763 42.1161C22.0094 42.1347 22.0364 42.1751 22.0364 42.2058C22.0364 42.2365 22.0673 42.2617 22.105 42.2617C22.1428 42.2617 22.1737 42.2887 22.1737 42.3217C22.1737 42.3548 22.2277 42.3818 22.2938 42.3818C22.36 42.3818 22.414 42.4088 22.414 42.4419C22.414 42.4792 22.597 42.502 22.8946 42.502C23.192 42.502 23.375 42.4792 23.375 42.4419C23.375 42.4081 23.4716 42.3818 23.5961 42.3818C23.7178 42.3818 23.8268 42.3548 23.8384 42.3217C23.8501 42.2887 23.9051 42.2617 23.9606 42.2617H24.0616V38.9602V35.6584H23.6153H23.1691V36.4389ZM27.8602 35.8185C27.8476 35.8405 27.8374 37.3264 27.8374 39.1202V42.3818H28.1462H28.4552V40.4607C28.4552 38.5798 28.4566 38.5399 28.5238 38.5399C28.5616 38.5399 28.5925 38.5129 28.5925 38.4799C28.5925 38.4468 28.6688 38.4198 28.7621 38.4198C28.8553 38.4198 28.9412 38.3928 28.9529 38.3597C28.9645 38.3267 29.0117 38.2996 29.0579 38.2996C29.104 38.2996 29.1416 38.3267 29.1416 38.3597C29.1416 38.3928 29.165 38.4198 29.1935 38.4198C29.2819 38.4198 29.4506 38.749 29.4506 38.9216C29.4506 39.0087 29.4661 39.0801 29.485 39.0801C29.507 39.0801 29.5192 39.6703 29.5192 40.731V42.3818H29.7767H30.0341V40.4009C30.0341 39.1202 30.022 38.4198 29.9998 38.4198C29.9809 38.4198 29.965 38.3455 29.9644 38.2548C29.9632 38.084 29.8958 37.8796 29.8405 37.8796C29.8232 37.8796 29.7868 37.8256 29.7595 37.7595C29.7323 37.6934 29.6842 37.6393 29.6527 37.6393C29.621 37.6393 29.5864 37.5989 29.5754 37.5494C29.5639 37.4966 29.5124 37.4594 29.4517 37.4594C29.3944 37.4594 29.3476 37.4324 29.3476 37.3993C29.3476 37.3253 28.9117 37.318 28.8956 37.3917C28.8893 37.4205 28.7876 37.4562 28.6697 37.4707L28.4552 37.4969V36.6377V35.7783H28.1692C28.0119 35.7783 27.8728 35.7964 27.8602 35.8185ZM43.1119 39.0801V42.3818H43.3693H43.6268V40.4607V38.5399H43.7127C43.7598 38.5399 43.7984 38.5129 43.7984 38.4799C43.7984 38.4468 43.8833 38.4198 43.9871 38.4198C44.0911 38.4198 44.176 38.3928 44.176 38.3597C44.176 38.3267 44.2069 38.2996 44.2447 38.2996C44.2823 38.2996 44.3132 38.3267 44.3132 38.3597C44.3132 38.3928 44.3608 38.4198 44.4187 38.4198C44.5333 38.4198 44.6222 38.536 44.6222 38.6855C44.6222 38.7375 44.6374 38.78 44.656 38.78C44.6773 38.78 44.6932 39.4439 44.6989 40.5659L44.708 42.3519L45.0084 42.3692L45.3086 42.3865V40.5232C45.3086 39.3212 45.2965 38.6598 45.2744 38.6598C45.2555 38.6598 45.2401 38.5646 45.2401 38.4479C45.2401 38.3148 45.2209 38.223 45.1886 38.2015C45.1603 38.1824 45.1371 38.1291 45.1371 38.0832C45.1371 38.0373 45.1216 37.9995 45.1027 37.9995C45.084 37.9995 45.0685 37.9455 45.0685 37.8796C45.0685 37.8112 45.0455 37.7595 45.0154 37.7595C44.9863 37.7595 44.9237 37.6918 44.8765 37.6094C44.8181 37.5071 44.7529 37.4594 44.6722 37.4594C44.6069 37.4594 44.5535 37.4324 44.5535 37.3993C44.5535 37.3655 44.4563 37.3392 44.3305 37.3392C44.2046 37.3392 44.1073 37.3655 44.1073 37.3993C44.1073 37.4324 44.0296 37.4594 43.9346 37.4594C43.8128 37.4594 43.7561 37.4859 43.7422 37.5494C43.6661 37.8962 43.6268 37.6097 43.6268 36.7088V35.7783H43.3693H43.1119V39.0801ZM50.9723 39.0824V42.3865L51.2726 42.3692L51.5731 42.3519L51.5826 39.2002C51.5939 35.3982 51.6295 35.7783 51.2635 35.7783H50.9723V39.0824ZM10.241 36.2288C10.2263 36.2957 10.1653 36.3187 10.0018 36.3187C9.8785 36.3187 9.78235 36.345 9.78235 36.3788C9.78235 36.4119 9.73795 36.4389 9.68365 36.4389C9.57685 36.4389 9.5422 36.5808 9.5422 37.0166V37.2191H9.3415C9.0718 37.2191 9.02725 37.3077 9.02725 37.8434C9.02725 38.2771 9.0691 38.4198 9.19645 38.4198C9.2356 38.4198 9.26755 38.4468 9.26755 38.4799C9.26755 38.5129 9.3274 38.5399 9.40045 38.5399H9.53335L9.54835 40.1118C9.5593 41.2535 9.5746 41.6903 9.6043 41.7076C9.6268 41.7207 9.6451 41.7832 9.6451 41.8467C9.6451 41.9099 9.66055 41.9616 9.67945 41.9616C9.69835 41.9616 9.7138 42.0182 9.7138 42.0872C9.7138 42.1625 9.7414 42.2255 9.78235 42.2444C9.82015 42.2617 9.85105 42.2997 9.85105 42.3288C9.85105 42.358 9.8896 42.3818 9.93685 42.3818C9.9841 42.3818 10.0226 42.4088 10.0226 42.4419C10.0226 42.4786 10.1829 42.502 10.4346 42.502C10.6863 42.502 10.8464 42.4786 10.8464 42.4419C10.8464 42.4088 10.8773 42.3818 10.9151 42.3818C10.9792 42.3818 10.9838 42.3419 10.9838 41.7816V41.1811H10.7606C10.5604 41.1811 10.5376 41.1688 10.5376 41.0612C10.5376 40.9951 10.5222 40.9411 10.5033 40.9411C10.4815 40.9411 10.4689 40.5009 10.4689 39.7404V38.5399H10.7263H10.9838V37.9652C10.9838 37.2629 10.9658 37.2191 10.6772 37.2191H10.4689V36.7154C10.4689 36.3114 10.4581 36.2044 10.4146 36.175C10.3243 36.1144 10.2619 36.1338 10.241 36.2288ZM4.75375 37.2791C4.7422 37.3122 4.66405 37.3392 4.5802 37.3392H4.42765V37.9995V38.6598H4.97935C5.5498 38.6598 5.62915 38.6918 5.62915 38.9222C5.62915 38.9723 5.6446 39.0297 5.66335 39.0502C5.7562 39.1504 5.67085 39.2002 5.40595 39.2002C5.23435 39.2002 5.1142 39.2249 5.1142 39.2603C5.1142 39.2934 5.03095 39.3204 4.9291 39.3204C4.7962 39.3204 4.73845 39.3456 4.7242 39.4104C4.7134 39.4599 4.67305 39.5003 4.6348 39.5003C4.5964 39.5003 4.56505 39.5274 4.56505 39.5604C4.56505 39.5935 4.54075 39.6205 4.51105 39.6205C4.44325 39.6205 4.3591 39.764 4.3591 39.8799C4.3591 39.9282 4.33585 39.9833 4.30765 40.0022C4.2793 40.0213 4.25605 40.0916 4.25605 40.1588C4.25605 40.226 4.2406 40.2808 4.2217 40.2808C4.2013 40.2808 4.1875 40.5109 4.1875 40.8511C4.1875 41.1913 4.2013 41.4214 4.2217 41.4214C4.2406 41.4214 4.25605 41.4985 4.25605 41.593C4.25605 41.706 4.28545 41.8031 4.34185 41.8774C4.3891 41.9395 4.42765 42.0143 4.42765 42.0439C4.42765 42.1531 4.61935 42.3818 4.71085 42.3818C4.76275 42.3818 4.80535 42.4088 4.80535 42.4419C4.80535 42.5261 5.4823 42.5216 5.49835 42.4372C5.5066 42.3942 5.69725 42.3745 6.0676 42.3787L6.62455 42.3847V40.4303C6.62455 38.7485 6.61735 38.4712 6.5731 38.4416C6.5413 38.4203 6.5215 38.329 6.5215 38.2034C6.5215 38.0913 6.50605 37.9995 6.48715 37.9995C6.4684 37.9995 6.45295 37.957 6.45295 37.9053C6.45295 37.796 6.37255 37.6393 6.31645 37.6393C6.2953 37.6393 6.2422 37.5719 6.1984 37.4893C6.15325 37.404 6.0808 37.3392 6.03055 37.3392C5.9818 37.3392 5.93245 37.3122 5.9209 37.2791C5.90815 37.2432 5.6752 37.2191 5.3374 37.2191C4.99945 37.2191 4.7665 37.2432 4.75375 37.2791ZM7.18225 37.3091C7.1494 37.3741 7.13935 37.9785 7.13935 39.8881V42.3818H7.56805C8.18545 42.3818 8.13475 42.5521 8.13475 40.4775C8.13475 38.8201 8.1364 38.78 8.20345 38.78C8.24125 38.78 8.27215 38.7529 8.27215 38.7199C8.27215 38.6868 8.35705 38.6598 8.46085 38.6598C8.5648 38.6598 8.6497 38.6328 8.6497 38.6C8.6497 38.567 8.6806 38.5399 8.7184 38.5399C8.78275 38.5399 8.78695 38.4998 8.78695 37.8796V37.2191H8.52955C8.38075 37.2191 8.27215 37.2445 8.27215 37.2791C8.27215 37.3122 8.227 37.3392 8.17195 37.3392C8.1169 37.3392 8.0641 37.3731 8.0545 37.4143C8.04505 37.4554 8.03605 37.4284 8.03455 37.3542C8.0311 37.1852 7.26505 37.1446 7.18225 37.3091ZM12.1336 37.2791C12.122 37.3122 12.0824 37.3392 12.0458 37.3392C12.0092 37.3392 11.9792 37.3662 11.9792 37.3993C11.9792 37.4324 11.9483 37.4594 11.9105 37.4594C11.8724 37.4594 11.8418 37.4992 11.8418 37.5494C11.8418 37.5989 11.8259 37.6393 11.8064 37.6393C11.7602 37.6393 11.533 38.037 11.533 38.1176C11.533 38.1517 11.5175 38.1797 11.4986 38.1797C11.4797 38.1797 11.4643 38.2608 11.4643 38.3597C11.4643 38.4799 11.4472 38.5399 11.4128 38.5399C11.3747 38.5399 11.3614 38.61 11.3614 38.8101C11.3614 38.9586 11.3459 39.0801 11.327 39.0801C11.3059 39.0801 11.2927 39.3802 11.2927 39.8605C11.2927 40.3409 11.3059 40.641 11.327 40.641C11.3459 40.641 11.3614 40.7769 11.3614 40.9429C11.3614 41.1562 11.3765 41.2551 11.4128 41.2795C11.4412 41.2986 11.4643 41.3655 11.4643 41.4285C11.4643 41.5662 11.8492 42.2617 11.9254 42.2617C11.9549 42.2617 11.9792 42.2887 11.9792 42.3217C11.9792 42.3548 12.0332 42.3818 12.0994 42.3818C12.1654 42.3818 12.2195 42.4088 12.2195 42.4419C12.2195 42.4792 12.4139 42.502 12.7344 42.502C13.0548 42.502 13.2493 42.4792 13.2493 42.4419C13.2493 42.4088 13.3342 42.3818 13.438 42.3818C13.5418 42.3818 13.6268 42.3548 13.6268 42.3217C13.6268 42.2887 13.6654 42.2617 13.7126 42.2617H13.7984V41.6615V41.0612H13.1462C12.7343 41.0612 12.494 41.0389 12.494 41.0012C12.494 40.9681 12.4631 40.9411 12.4255 40.9411C12.3803 40.9411 12.3568 40.9012 12.3568 40.8246C12.3568 40.7606 12.3413 40.6913 12.3224 40.6709C12.3035 40.6507 12.2881 40.5814 12.2881 40.5174C12.2881 40.4054 12.3188 40.4009 13.0628 40.4009C13.6886 40.4009 13.847 40.3844 13.8867 40.3151C13.9447 40.2134 13.9582 39.2002 13.9014 39.2002C13.8825 39.2002 13.8671 39.0517 13.8671 38.87C13.8671 38.6884 13.8517 38.5399 13.8328 38.5399C13.8139 38.5399 13.7984 38.4712 13.7984 38.3875C13.7984 38.2144 13.3955 37.4594 13.3032 37.4594C13.2734 37.4594 13.2493 37.4324 13.2493 37.3993C13.2493 37.3662 13.2184 37.3392 13.1806 37.3392C13.1428 37.3392 13.1119 37.3122 13.1119 37.2791C13.1119 37.2422 12.9295 37.2191 12.6334 37.2191C12.3514 37.2191 12.1462 37.2437 12.1336 37.2791ZM14.1502 37.3091C14.0993 37.4101 14.0923 37.8796 14.1416 37.8796C14.1605 37.8796 14.176 37.9741 14.176 38.0898C14.176 38.2052 14.1914 38.2996 14.2103 38.2996C14.2292 38.2996 14.2447 38.4077 14.2447 38.5399C14.2447 38.6719 14.2601 38.78 14.279 38.78C14.2978 38.78 14.3132 38.9014 14.3132 39.0502C14.3132 39.1987 14.3287 39.3204 14.3476 39.3204C14.3665 39.3204 14.3819 39.4022 14.3819 39.5022C14.3819 39.6087 14.4034 39.6987 14.4334 39.7189C14.4683 39.7422 14.485 39.838 14.485 40.0171C14.485 40.1622 14.5003 40.2808 14.5192 40.2808C14.5381 40.2808 14.5535 40.3889 14.5535 40.5208C14.5535 40.653 14.569 40.7611 14.5879 40.7611C14.6068 40.7611 14.6222 40.8556 14.6222 40.971C14.6222 41.0867 14.6377 41.1811 14.6566 41.1811C14.6755 41.1811 14.6909 41.2876 14.6909 41.4177C14.6909 41.5479 14.7062 41.6712 14.7251 41.6914C14.744 41.7118 14.7595 41.7811 14.7595 41.8451C14.7595 41.9091 14.7827 41.9616 14.8109 41.9616C14.8393 41.9616 14.8625 41.9899 14.8625 42.0243C14.8625 42.1192 15.0238 42.3818 15.082 42.3818C15.11 42.3818 15.1426 42.4088 15.1543 42.4419C15.166 42.475 15.3205 42.502 15.4996 42.502C15.6926 42.502 15.8236 42.4776 15.8236 42.4419C15.8236 42.4088 15.8622 42.3818 15.9094 42.3818C15.9566 42.3818 15.9952 42.358 15.9952 42.3288C15.9952 42.2997 16.0261 42.2617 16.0639 42.2444C16.1017 42.227 16.1325 42.1625 16.1325 42.1006C16.1325 42.0387 16.1634 41.9492 16.2011 41.9015C16.2514 41.8383 16.2698 41.7462 16.2698 41.5581C16.2698 41.3697 16.2835 41.3013 16.3213 41.3013C16.3553 41.3013 16.3727 41.2417 16.3727 41.1247C16.3727 41.0277 16.3882 40.9314 16.4071 40.9112C16.426 40.8907 16.4414 40.7674 16.4414 40.6373C16.4414 40.5072 16.4569 40.4009 16.4758 40.4009C16.4947 40.4009 16.5101 40.2792 16.5101 40.1307C16.5101 39.982 16.5256 39.8605 16.5443 39.8605C16.5632 39.8605 16.5787 39.7661 16.5787 39.6504C16.5787 39.535 16.5941 39.4403 16.613 39.4403C16.6319 39.4403 16.6474 39.3351 16.6474 39.2065C16.6474 39.0544 16.6652 38.961 16.6988 38.9384C16.729 38.9182 16.7503 38.8282 16.7503 38.7217C16.7503 38.6218 16.7657 38.5399 16.7846 38.5399C16.8035 38.5399 16.819 38.4182 16.819 38.2697C16.819 38.1212 16.8344 37.9995 16.8533 37.9995C16.8727 37.9995 16.8877 37.8295 16.8877 37.6094V37.2191H16.459C15.9602 37.2191 15.8923 37.2708 15.8923 37.6493C15.8923 37.7721 15.8768 37.8891 15.8579 37.9095C15.839 37.93 15.8236 38.053 15.8236 38.1832C15.8236 38.3133 15.8081 38.4198 15.7892 38.4198C15.7703 38.4198 15.7549 38.5683 15.7549 38.7501C15.7549 38.9316 15.7394 39.0801 15.7205 39.0801C15.7018 39.0801 15.6863 39.2288 15.6863 39.4104C15.6863 39.5919 15.6709 39.7404 15.652 39.7404C15.6331 39.7404 15.6177 39.8592 15.6177 40.0043C15.6177 40.1832 15.6011 40.2789 15.5662 40.3026C15.5357 40.3228 15.5146 40.413 15.5146 40.5227C15.5146 40.631 15.5003 40.6926 15.4804 40.6709C15.4615 40.6507 15.446 40.5274 15.446 40.3973C15.446 40.2671 15.4306 40.1606 15.4117 40.1606C15.3928 40.1606 15.3773 40.0122 15.3773 39.8306C15.3773 39.6488 15.3619 39.5003 15.343 39.5003C15.3241 39.5003 15.3086 39.3789 15.3086 39.2301C15.3086 39.0817 15.2933 38.9602 15.2744 38.9602C15.2555 38.9602 15.2401 38.824 15.2401 38.658C15.2401 38.445 15.2249 38.3458 15.1887 38.3214C15.1537 38.2981 15.137 38.2023 15.137 38.0231C15.137 37.8781 15.1216 37.7595 15.1027 37.7595C15.0839 37.7595 15.0685 37.6766 15.0685 37.5751C15.0685 37.2587 15.0137 37.2188 14.5817 37.2214C14.2904 37.2233 14.1824 37.245 14.1502 37.3091ZM17.9518 37.2791C17.9518 37.3122 17.9126 37.3392 17.8648 37.3392C17.7721 37.3392 17.6272 37.4775 17.5358 37.653C17.5052 37.7115 17.4685 37.7595 17.4539 37.7595C17.4071 37.7595 17.2654 38.0866 17.2652 38.1947C17.2652 38.2524 17.2498 38.2996 17.2309 38.2996C17.212 38.2996 17.1965 38.3807 17.1965 38.4799C17.1965 38.5788 17.1811 38.6598 17.1622 38.6598C17.1406 38.6598 17.128 39.1003 17.128 39.8605C17.128 40.621 17.1406 41.0612 17.1622 41.0612C17.1811 41.0612 17.1965 41.1407 17.1965 41.2378C17.1965 41.3348 17.212 41.4309 17.2309 41.4513C17.2498 41.4718 17.2652 41.5345 17.2652 41.5906C17.2652 41.647 17.3068 41.7467 17.3576 41.8123C17.4086 41.8779 17.4737 41.9789 17.5027 42.0366C17.5315 42.0946 17.5749 42.1418 17.599 42.1418C17.6231 42.1418 17.6428 42.1688 17.6428 42.2019C17.6428 42.2347 17.6728 42.2617 17.7094 42.2617C17.7462 42.2617 17.7856 42.2887 17.7973 42.3217C17.809 42.3548 17.8639 42.3818 17.9194 42.3818C17.9749 42.3818 18.0203 42.4088 18.0203 42.4419C18.0203 42.4792 18.2092 42.502 18.518 42.502C18.827 42.502 19.0157 42.4792 19.0157 42.4419C19.0157 42.4088 19.1047 42.381 19.2132 42.38C19.4062 42.3781 19.5307 42.2879 19.5307 42.1502C19.5307 42.1124 19.5461 42.0817 19.565 42.0817C19.6208 42.0817 19.6078 41.2475 19.5504 41.147C19.5115 41.0788 19.3727 41.0612 18.8809 41.0612C18.4903 41.0612 18.2606 41.0389 18.2606 41.0012C18.2606 40.9681 18.2442 40.9411 18.2239 40.9411C18.1633 40.9411 18.089 40.7782 18.089 40.6452C18.089 40.577 18.0736 40.5208 18.0547 40.5208C18.0358 40.5208 18.0203 40.4938 18.0203 40.4607C18.0203 40.4224 18.3179 40.4009 18.8441 40.4009H19.6679V39.6205C19.6679 39.1402 19.6547 38.84 19.6336 38.84C19.6148 38.84 19.5994 38.7456 19.5994 38.6299C19.5994 38.5145 19.5839 38.4198 19.565 38.4198C19.5461 38.4198 19.5307 38.3817 19.5307 38.3353C19.5307 38.2191 19.3874 37.7595 19.3511 37.7595C19.3349 37.7595 19.2844 37.6986 19.2389 37.6244C19.0826 37.3686 19.0526 37.3392 18.9485 37.3392C18.8912 37.3392 18.8441 37.3122 18.8441 37.2791C18.8441 37.2422 18.6725 37.2191 18.3979 37.2191C18.1234 37.2191 17.9518 37.2422 17.9518 37.2791ZM25.3831 37.2791C25.3714 37.3122 25.3242 37.3392 25.2781 37.3392C25.232 37.3392 25.1942 37.3662 25.1942 37.3993C25.1942 37.4324 25.1732 37.4594 25.1476 37.4594C25.1219 37.4594 25.072 37.5268 25.0364 37.6094C25.001 37.6918 24.9596 37.7595 24.9443 37.7595C24.9038 37.7595 24.7481 38.0433 24.7481 38.117C24.7481 38.1514 24.7327 38.1797 24.7138 38.1797C24.6949 38.1797 24.6794 38.2338 24.6794 38.2996C24.6794 38.3657 24.664 38.4198 24.6451 38.4198C24.6262 38.4198 24.6107 38.5384 24.6107 38.6834C24.6107 38.8626 24.5942 38.9584 24.5593 38.9817C24.5168 39.0103 24.5078 39.168 24.5078 39.8823C24.5078 40.5966 24.5168 40.7543 24.5593 40.7826C24.5933 40.8055 24.6107 40.8996 24.6107 41.0594C24.6107 41.1924 24.6262 41.3013 24.6451 41.3013C24.664 41.3013 24.6794 41.3561 24.6794 41.4233C24.6794 41.5486 24.8893 41.9616 24.9529 41.9616C24.9724 41.9616 24.9883 41.9907 24.9883 42.0258C24.9883 42.1203 25.0784 42.2617 25.1383 42.2617C25.1669 42.2617 25.1998 42.2887 25.2115 42.3217C25.2232 42.3548 25.2781 42.3818 25.3336 42.3818C25.3891 42.3818 25.4345 42.4088 25.4345 42.4419C25.4345 42.4792 25.6283 42.502 25.9474 42.502C26.2523 42.502 26.4689 42.4776 26.4815 42.4419C26.4931 42.4088 26.5781 42.3818 26.6702 42.3818C26.7625 42.3818 26.8474 42.3548 26.8591 42.3217C26.8708 42.2887 26.9102 42.2617 26.9468 42.2617C27.0083 42.2617 27.0136 42.2158 27.0136 41.6615V41.0612H26.3806C25.9955 41.0612 25.7392 41.0376 25.7263 41.0012C25.7147 40.9681 25.6751 40.9411 25.6385 40.9411C25.5955 40.9411 25.5719 40.8999 25.5719 40.8246C25.5719 40.7606 25.5565 40.6913 25.5376 40.6709C25.5187 40.6507 25.5032 40.5814 25.5032 40.5174C25.5032 40.4054 25.534 40.4009 26.278 40.4009C26.9036 40.4009 27.0622 40.3844 27.1018 40.3151C27.1595 40.2141 27.1727 39.3204 27.1165 39.3204C27.0971 39.3204 27.0821 39.1501 27.0821 38.93C27.0821 38.7099 27.0672 38.5399 27.0478 38.5399C27.029 38.5399 27.0136 38.4859 27.0136 38.4198C27.0136 38.3537 26.9981 38.2996 26.9792 38.2996C26.9604 38.2996 26.9449 38.2438 26.9449 38.1753C26.9449 38.0515 26.8723 37.8807 26.8186 37.8783C26.8032 37.8775 26.7442 37.7831 26.6878 37.6682C26.6312 37.5533 26.5657 37.4594 26.5418 37.4594C26.5182 37.4594 26.4986 37.4324 26.4986 37.3993C26.4986 37.3662 26.461 37.3392 26.4148 37.3392C26.3687 37.3392 26.3215 37.3122 26.3098 37.2791C26.2975 37.2443 26.1043 37.2191 25.8464 37.2191C25.5887 37.2191 25.3954 37.2443 25.3831 37.2791ZM31.4071 37.3993C31.4071 37.4324 31.3448 37.4594 31.2688 37.4594C31.1775 37.4594 31.1236 37.4898 31.1105 37.5494C31.0997 37.5989 31.0616 37.6393 31.0259 37.6393C30.9901 37.6393 30.9608 37.6664 30.9608 37.6994C30.9608 37.7325 30.9436 37.7595 30.9226 37.7595C30.8632 37.7595 30.652 38.1902 30.652 38.3114C30.652 38.371 30.6365 38.4198 30.6176 38.4198C30.5987 38.4198 30.5833 38.4709 30.5833 38.5334C30.5833 38.5961 30.5612 38.6619 30.5344 38.68C30.4583 38.7309 30.4546 41.1811 30.5306 41.1811C30.5672 41.1811 30.5833 41.2412 30.5833 41.3781C30.5833 41.5061 30.6073 41.6053 30.652 41.6615C30.6898 41.7089 30.7205 41.785 30.7205 41.8301C30.7205 41.9256 30.8552 42.1368 30.9179 42.1397C30.9416 42.1407 30.9608 42.1688 30.9608 42.2019C30.9608 42.2347 30.9917 42.2617 31.0295 42.2617C31.0673 42.2617 31.0982 42.2887 31.0982 42.3217C31.0982 42.3548 31.1522 42.3818 31.2184 42.3818C31.2844 42.3818 31.3384 42.4088 31.3384 42.4419C31.3384 42.4773 31.4585 42.502 31.6303 42.502C31.8019 42.502 31.922 42.4773 31.922 42.4419C31.922 42.4088 31.9915 42.3818 32.0764 42.3818C32.1614 42.3818 32.2309 42.3548 32.2309 42.3217C32.2309 42.2887 32.2553 42.2617 32.285 42.2617C32.3545 42.2617 32.6084 41.8157 32.6084 41.6937C32.6084 41.6431 32.6239 41.6014 32.6428 41.6014C32.6617 41.6014 32.6771 41.534 32.6771 41.4513C32.6771 41.3689 32.6926 41.3013 32.7115 41.3013C32.7307 41.3013 32.7458 41.1334 32.7458 40.9175C32.7458 40.6318 32.7589 40.525 32.7973 40.499C32.8378 40.472 32.8487 40.3487 32.8487 39.9206C32.8487 39.4925 32.8378 39.3692 32.7973 39.3419C32.7589 39.3162 32.7458 39.2094 32.7458 38.9237C32.7458 38.7078 32.7307 38.5399 32.7115 38.5399C32.6926 38.5399 32.6771 38.4859 32.6771 38.4198C32.6771 38.3537 32.6617 38.2996 32.6428 38.2996C32.6239 38.2996 32.6084 38.2501 32.6084 38.1897C32.6084 38.062 32.4277 37.7595 32.3513 37.7595C32.3228 37.7595 32.2996 37.7325 32.2996 37.6994C32.2996 37.6664 32.2703 37.6393 32.2346 37.6393C32.1988 37.6393 32.1607 37.5989 32.1499 37.5494C32.1368 37.4898 32.083 37.4594 31.9916 37.4594C31.9156 37.4594 31.8533 37.4324 31.8533 37.3993C31.8533 37.3655 31.7561 37.3392 31.6303 37.3392C31.5044 37.3392 31.4071 37.3655 31.4071 37.3993ZM36.7618 37.3996C36.7334 37.4289 36.6524 37.4691 36.5816 37.4888C36.5108 37.5087 36.4529 37.5507 36.4529 37.5821C36.4529 37.6136 36.4254 37.6393 36.3918 37.6393C36.3583 37.6393 36.3085 37.6934 36.2812 37.7595C36.254 37.8256 36.2187 37.8796 36.2026 37.8796C36.1612 37.8796 36.0752 38.0386 36.0752 38.1155C36.0752 38.1506 36.0598 38.1797 36.041 38.1797C36.0221 38.1797 36.0067 38.2322 36.0067 38.2962C36.0067 38.3602 35.9912 38.4295 35.9723 38.4499C35.9534 38.4701 35.938 38.5934 35.938 38.7236C35.938 38.8537 35.9225 38.9602 35.9036 38.9602C35.8822 38.9602 35.8693 39.3303 35.8693 39.9505C35.8693 40.5709 35.8822 40.9411 35.9036 40.9411C35.9225 40.9411 35.938 41.0476 35.938 41.1777C35.938 41.3078 35.9534 41.4309 35.9723 41.4513C35.9912 41.4718 36.0067 41.5287 36.0067 41.5778C36.0067 41.6793 36.1568 41.9616 36.211 41.9616C36.2308 41.9616 36.247 41.9907 36.247 42.0258C36.247 42.1216 36.3373 42.2617 36.3989 42.2617C36.4286 42.2617 36.4529 42.2887 36.4529 42.3217C36.4529 42.3548 36.507 42.3818 36.5731 42.3818C36.6391 42.3818 36.6931 42.4088 36.6931 42.4419C36.6931 42.4789 36.8648 42.502 37.1393 42.502C37.414 42.502 37.5856 42.4789 37.5856 42.4419C37.5856 42.4086 37.6775 42.3818 37.793 42.3818C38.0767 42.3818 38.1425 42.274 38.1281 41.8341L38.1176 41.5114L37.8517 41.4938C37.6835 41.4828 37.5856 41.4993 37.5856 41.5389C37.5856 41.578 37.4575 41.6014 37.2424 41.6014C37.0364 41.6014 36.899 41.5775 36.899 41.5413C36.899 41.5085 36.8527 41.4815 36.7962 41.4815C36.7333 41.4815 36.6931 41.4503 36.6931 41.4015C36.6931 41.3574 36.6545 41.2855 36.6073 41.2412C36.5468 41.1845 36.5215 41.1108 36.5215 40.9909C36.5215 40.8975 36.506 40.8209 36.4871 40.8209C36.4684 40.8209 36.4529 40.7 36.4529 40.552V40.2829L37.3196 40.2669L38.1863 40.2506L38.1961 39.6055C38.2022 39.1903 38.1931 38.9602 38.1703 38.9602C38.1508 38.9602 38.1347 38.8511 38.1347 38.7181C38.1347 38.5583 38.1173 38.4644 38.0833 38.4416C38.0549 38.4224 38.0318 38.3558 38.0318 38.2933C38.0318 38.2309 38.0164 38.1797 37.9975 38.1797C37.9786 38.1797 37.9632 38.1517 37.9632 38.1176C37.9632 38.0187 37.7308 37.6393 37.67 37.6393C37.6397 37.6393 37.5919 37.5989 37.5635 37.5494C37.5352 37.4998 37.4591 37.4594 37.3943 37.4594C37.3297 37.4594 37.2767 37.4324 37.2767 37.3993C37.2767 37.3251 36.8336 37.3253 36.7618 37.3996ZM39.1988 37.3993C39.1988 37.4324 39.1366 37.4594 39.0605 37.4594C38.9692 37.4594 38.9153 37.4898 38.9023 37.5494C38.8915 37.5989 38.8526 37.6393 38.816 37.6393C38.7128 37.6393 38.581 37.9072 38.581 38.117C38.581 38.2175 38.5655 38.2996 38.5466 38.2996C38.5273 38.2996 38.5124 38.4699 38.5124 38.69C38.5124 38.9101 38.5273 39.0801 38.5466 39.0801C38.5655 39.0801 38.581 39.1341 38.581 39.2002C38.581 39.2663 38.5965 39.3204 38.6153 39.3204C38.6343 39.3204 38.6497 39.37 38.6497 39.4303C38.6497 39.5441 38.8273 39.8605 38.8912 39.8605C38.9111 39.8605 38.966 39.9282 39.0131 40.0106C39.0604 40.0932 39.1214 40.1606 39.1489 40.1606C39.1763 40.1606 39.1988 40.1877 39.1988 40.2207C39.1988 40.2538 39.2263 40.2808 39.2599 40.2808C39.2935 40.2808 39.3433 40.3348 39.3704 40.4009C39.3978 40.4668 39.4552 40.5208 39.4982 40.5208C39.5413 40.5208 39.5764 40.5478 39.5764 40.5809C39.5764 40.6139 39.6073 40.641 39.6451 40.641C39.6829 40.641 39.7138 40.6756 39.7138 40.7178C39.7138 40.7601 39.7447 40.8335 39.7823 40.881C39.8745 40.997 39.869 41.2346 39.7697 41.4364C39.6845 41.6098 38.9585 41.7037 38.9585 41.5413C38.9585 41.4469 38.6176 41.4689 38.5613 41.567C38.533 41.6169 38.5124 41.7701 38.5124 41.9317C38.5124 42.2934 38.5658 42.3818 38.7845 42.3818C38.8802 42.3818 38.9585 42.4088 38.9585 42.4419C38.9585 42.4789 39.1303 42.502 39.4048 42.502C39.6795 42.502 39.851 42.4789 39.851 42.4419C39.851 42.4088 39.905 42.3818 39.9712 42.3818C40.0372 42.3818 40.0914 42.3548 40.0914 42.3217C40.0914 42.2887 40.1152 42.2617 40.1443 42.2617C40.2154 42.2617 40.309 42.0998 40.3966 41.8246C40.542 41.3684 40.4529 40.1606 40.2738 40.1606C40.249 40.1606 40.2286 40.1318 40.2286 40.0964C40.2286 40.0006 40.1383 39.8605 40.0766 39.8605C40.0469 39.8605 40.0226 39.8335 40.0226 39.8005C40.0226 39.7674 39.9995 39.7404 39.9712 39.7404C39.9428 39.7404 39.9197 39.7134 39.9197 39.6806C39.9197 39.6475 39.8888 39.6205 39.851 39.6205C39.8132 39.6205 39.7823 39.5935 39.7823 39.5604C39.7823 39.5274 39.7514 39.5003 39.7138 39.5003C39.6755 39.5003 39.6451 39.4605 39.6451 39.4104C39.6451 39.3566 39.6136 39.3204 39.5668 39.3204C39.5239 39.3204 39.4663 39.2663 39.4391 39.2002C39.412 39.1341 39.3622 39.0801 39.3286 39.0801C39.295 39.0801 39.2675 39.0531 39.2675 39.02C39.2675 38.9872 39.25 38.9602 39.2284 38.9602C39.1805 38.9602 39.0985 38.7792 39.097 38.6706C39.0955 38.5646 39.1814 38.4198 39.2459 38.4198C39.2744 38.4198 39.3073 38.3928 39.319 38.3597C39.3479 38.2779 39.9541 38.2807 39.9541 38.3626C39.9541 38.4017 40.0354 38.4187 40.1686 38.4077L40.3831 38.3899L40.3933 37.9749C40.4058 37.4775 40.396 37.4615 40.0828 37.4602C39.9515 37.4596 39.851 37.4334 39.851 37.3993C39.851 37.3634 39.7195 37.3392 39.5249 37.3392C39.3304 37.3392 39.1988 37.3634 39.1988 37.3993ZM41.6875 37.3993C41.6758 37.4324 41.6237 37.4594 41.5718 37.4594C41.5199 37.4594 41.4475 37.499 41.4107 37.5475C41.3741 37.5961 41.3236 37.6364 41.2985 37.6375C41.2381 37.6401 40.9838 38.106 40.9838 38.2146C40.9838 38.2613 40.9684 38.2996 40.9495 38.2996C40.9306 38.2996 40.9151 38.3537 40.9151 38.4198C40.9151 38.4859 40.8997 38.5399 40.8808 38.5399C40.8619 38.5399 40.8464 38.6884 40.8464 38.87C40.8464 39.0517 40.831 39.2002 40.8121 39.2002C40.7912 39.2002 40.7779 39.4804 40.7779 39.9206C40.7779 40.3608 40.7912 40.641 40.8121 40.641C40.831 40.641 40.8464 40.7895 40.8464 40.971C40.8464 41.1528 40.8619 41.3013 40.8808 41.3013C40.8997 41.3013 40.9151 41.3689 40.9151 41.4513C40.9151 41.534 40.9306 41.6014 40.9495 41.6014C40.9684 41.6014 40.9838 41.6554 40.9838 41.7215C40.9838 41.7876 41.0003 41.8417 41.0206 41.8417C41.065 41.8417 41.1554 41.9923 41.1554 42.0662C41.1554 42.1473 41.4256 42.3818 41.5191 42.3818C41.5645 42.3818 41.6017 42.4088 41.6017 42.4419C41.6017 42.4784 41.7503 42.502 41.9792 42.502C42.208 42.502 42.3568 42.4784 42.3568 42.4419C42.3568 42.4088 42.4262 42.3818 42.5113 42.3818H42.6656V41.9317V41.4815H42.5113C42.4262 41.4815 42.3568 41.5085 42.3568 41.5413C42.3568 41.5765 42.2423 41.6014 42.0821 41.6014C41.922 41.6014 41.8076 41.5765 41.8076 41.5413C41.8076 41.5085 41.7784 41.4815 41.7425 41.4815C41.7068 41.4815 41.6687 41.4408 41.6578 41.3912C41.647 41.3419 41.6182 41.3013 41.5939 41.3013C41.548 41.3013 41.4845 41.0901 41.4454 40.806C41.4328 40.7152 41.4088 40.641 41.392 40.641C41.3354 40.641 41.3548 39.2629 41.4128 39.1617C41.4412 39.1121 41.4643 39.0187 41.4643 38.9539C41.4643 38.8164 41.6788 38.4198 41.7529 38.4198C41.7808 38.4198 41.813 38.3928 41.8247 38.3597C41.8364 38.3267 41.93 38.2996 42.0326 38.2996C42.1354 38.2996 42.2195 38.3267 42.2195 38.3597C42.2195 38.3935 42.3172 38.4198 42.4441 38.4198H42.6687L42.6586 37.9547L42.6485 37.4893L42.4426 37.4709C42.3293 37.4609 42.2219 37.4271 42.2041 37.3959C42.1604 37.3201 41.7143 37.323 41.6875 37.3993ZM46.5787 37.3993C46.5787 37.4324 46.5164 37.4594 46.4404 37.4594C46.349 37.4594 46.2953 37.4898 46.2823 37.5494C46.2713 37.5989 46.2332 37.6393 46.1975 37.6393C46.1617 37.6393 46.1324 37.6664 46.1324 37.6994C46.1324 37.7325 46.1083 37.7595 46.0786 37.7595C45.9871 37.7595 45.7549 38.3183 45.7549 38.5386C45.7549 38.6053 45.7394 38.6598 45.7205 38.6598C45.6988 38.6598 45.6863 39.1202 45.6863 39.9206C45.6863 40.721 45.6988 41.1811 45.7205 41.1811C45.7394 41.1811 45.7549 41.2632 45.7549 41.3634C45.7549 41.4684 45.7878 41.609 45.8321 41.6945C46.1107 42.2315 46.2307 42.3816 46.3814 42.3818C46.4521 42.3818 46.5101 42.4088 46.5101 42.4419C46.5101 42.4776 46.636 42.502 46.819 42.502C47.0021 42.502 47.128 42.4776 47.128 42.4419C47.128 42.4088 47.1898 42.3818 47.2652 42.3818C47.3407 42.3818 47.4025 42.3548 47.4025 42.3217C47.4025 42.2887 47.4187 42.2617 47.4383 42.2617C47.458 42.2617 47.4949 42.2315 47.5202 42.1943C47.7024 41.928 47.78 41.7813 47.78 41.704C47.78 41.6546 47.8033 41.5988 47.8316 41.5796C47.8616 41.5594 47.8831 41.4697 47.8831 41.3632C47.8831 41.2632 47.8985 41.1811 47.9174 41.1811C47.9392 41.1811 47.9518 40.721 47.9518 39.9206C47.9518 39.1202 47.9392 38.6598 47.9174 38.6598C47.8985 38.6598 47.8831 38.5916 47.8831 38.5079C47.8831 38.4245 47.86 38.3406 47.8316 38.3214C47.8033 38.3025 47.78 38.2493 47.78 38.2034C47.78 38.1572 47.7685 38.1197 47.7541 38.1197C47.7398 38.1197 47.7077 38.0386 47.6827 37.9394C47.6549 37.8298 47.6113 37.7595 47.5712 37.7595C47.5351 37.7595 47.5055 37.7325 47.5055 37.6994C47.5055 37.6664 47.4685 37.6393 47.4234 37.6393C47.3782 37.6393 47.3323 37.5989 47.3215 37.5494C47.3084 37.4898 47.2547 37.4594 47.1634 37.4594C47.0872 37.4594 47.0249 37.4324 47.0249 37.3993C47.0249 37.3655 46.9277 37.3392 46.8019 37.3392C46.676 37.3392 46.5787 37.3655 46.5787 37.3993ZM49.2389 37.3993C49.2272 37.4324 49.1569 37.4594 49.0825 37.4594C48.9851 37.4594 48.9472 37.4846 48.9472 37.5494C48.9472 37.6031 48.9156 37.6393 48.8689 37.6393C48.8258 37.6393 48.7684 37.6934 48.7412 37.7595C48.7139 37.8256 48.6643 37.8796 48.6307 37.8796C48.5971 37.8796 48.5696 37.9082 48.5696 37.9436C48.5696 37.9788 48.5309 38.0961 48.4838 38.2044C48.4366 38.3125 48.3979 38.4594 48.3979 38.5305C48.3979 38.6016 48.3824 38.6598 48.3637 38.6598C48.3418 38.6598 48.3293 39.1202 48.3293 39.9206C48.3293 40.721 48.3418 41.1811 48.3637 41.1811C48.3824 41.1811 48.3982 41.2556 48.3985 41.3464C48.3994 41.7045 48.8087 42.3816 49.0244 42.3818C49.0952 42.3818 49.1531 42.4088 49.1531 42.4419C49.1531 42.4776 49.279 42.502 49.462 42.502C49.6451 42.502 49.771 42.4776 49.771 42.4419C49.771 42.4088 49.8328 42.3818 49.9082 42.3818C49.9838 42.3818 50.0455 42.3548 50.0455 42.3217C50.0455 42.2887 50.0687 42.2617 50.0971 42.2617C50.1253 42.2617 50.1485 42.2347 50.1485 42.2019C50.1485 42.1688 50.1662 42.1418 50.1877 42.1418C50.2693 42.1418 50.4211 41.7981 50.5654 41.2871C50.6078 41.1365 50.6032 38.6598 50.5604 38.6598C50.5415 38.6598 50.5261 38.5887 50.5261 38.5016C50.5261 38.4148 50.4913 38.2863 50.4488 38.2162C50.4064 38.1459 50.3497 38.0145 50.323 37.924C50.2962 37.8335 50.2459 37.7595 50.2114 37.7595C50.1767 37.7595 50.1485 37.7325 50.1485 37.6994C50.1485 37.6664 50.1116 37.6393 50.0663 37.6393C50.0212 37.6393 49.9753 37.5989 49.9645 37.5494C49.9514 37.4898 49.8977 37.4594 49.8064 37.4594C49.7302 37.4594 49.6679 37.4324 49.6679 37.3993C49.6679 37.366 49.5772 37.3392 49.4641 37.3392C49.3519 37.3392 49.2506 37.3662 49.2389 37.3993ZM33.832 37.5494C33.8036 37.5989 33.7408 37.6393 33.6922 37.6393C33.6436 37.6393 33.6038 37.6664 33.6038 37.6994C33.6038 37.7325 33.5867 37.7595 33.5656 37.7595C33.5062 37.7595 33.295 38.1902 33.295 38.3114C33.295 38.371 33.2795 38.4198 33.2606 38.4198C33.2114 38.4198 33.2149 39.8437 33.2641 39.8726C33.2848 39.8847 33.3019 40.0009 33.3019 40.1307C33.3019 40.2606 33.2848 40.3768 33.2641 40.3889C33.2162 40.4167 33.2129 41.1811 33.2606 41.1811C33.2795 41.1811 33.295 41.2299 33.295 41.2892C33.295 41.3488 33.3143 41.4332 33.3379 41.4768C33.3722 41.5405 33.3722 41.562 33.3379 41.5838C33.3143 41.599 33.295 41.6633 33.295 41.7265C33.295 41.7897 33.2795 41.8417 33.2606 41.8417C33.2417 41.8417 33.2263 41.9361 33.2263 42.0515C33.2263 42.1985 33.2108 42.2617 33.1748 42.2617C33.1348 42.2617 33.1234 42.3419 33.1234 42.624C33.1234 42.8902 33.1369 42.9952 33.1748 43.0203C33.2043 43.0403 33.2263 43.1297 33.2263 43.2286C33.2263 43.3241 33.2417 43.4023 33.2606 43.4023C33.2795 43.4023 33.295 43.4306 33.295 43.465C33.295 43.5744 33.4606 43.8226 33.5336 43.8226C33.5723 43.8226 33.6038 43.8496 33.6038 43.8826C33.6038 43.9157 33.6485 43.9427 33.7031 43.9427C33.7598 43.9427 33.811 43.9813 33.8222 44.0327C33.8386 44.1075 33.9331 44.1227 34.3762 44.1227C34.8194 44.1227 34.9138 44.1075 34.9301 44.0327C34.9423 43.9771 34.9945 43.9427 35.0663 43.9427C35.1304 43.9427 35.1829 43.9157 35.1829 43.8826C35.1829 43.8496 35.2078 43.8226 35.2384 43.8226C35.3161 43.8226 35.4905 43.46 35.4913 43.2974C35.4916 43.2231 35.5072 43.1623 35.5261 43.1623C35.5463 43.1623 35.5604 42.9521 35.5604 42.652C35.5604 42.3519 35.5463 42.1418 35.5261 42.1418C35.5072 42.1418 35.4913 42.1079 35.4907 42.0668C35.489 41.9568 35.3683 41.7215 35.3137 41.7215C35.2877 41.7215 35.2444 41.6675 35.2172 41.6014C35.1856 41.5248 35.1283 41.4815 35.0588 41.4815C34.9937 41.4815 34.942 41.4453 34.9301 41.3912C34.9187 41.3393 34.8674 41.3013 34.8083 41.3013C34.7522 41.3013 34.6967 41.2742 34.6852 41.2412C34.6735 41.2081 34.6117 41.1811 34.5478 41.1811C34.484 41.1811 34.4222 41.1541 34.4105 41.1213C34.3988 41.0883 34.3285 41.0612 34.2541 41.0612C34.1797 41.0612 34.1188 41.0342 34.1188 41.0012C34.1188 40.9681 34.0559 40.9411 33.979 40.9411C33.8443 40.9411 33.7412 40.839 33.7412 40.7052C33.7412 40.5998 33.9713 40.6279 33.995 40.7362C34.0222 40.86 34.7729 40.8409 34.7968 40.716C34.8046 40.6748 34.856 40.641 34.9111 40.641C34.9661 40.641 35.0113 40.6139 35.0113 40.5809C35.0113 40.5478 35.0426 40.5208 35.081 40.5208C35.1503 40.5208 35.3888 40.1554 35.3888 40.0491C35.3888 40.0185 35.4119 39.9778 35.4403 39.9589C35.4823 39.9308 35.4917 39.7855 35.4917 39.1722C35.4917 38.5433 35.4833 38.4198 35.4403 38.4198C35.3392 38.4198 35.3909 38.307 35.5003 38.2886C35.6387 38.2653 35.6845 37.8141 35.5717 37.5837C35.4908 37.4185 33.9244 37.3878 33.832 37.5494ZM31.7161 38.3597C31.7161 38.3928 31.7557 38.4198 31.8043 38.4198C31.8529 38.4198 31.9121 38.4536 31.936 38.4948C31.9598 38.536 32.0204 38.6236 32.0709 38.6892C32.1373 38.7758 32.1622 38.8621 32.1622 39.0043C32.1622 39.1121 32.1776 39.2002 32.1965 39.2002C32.2175 39.2002 32.2309 39.4804 32.2309 39.9206C32.2309 40.3608 32.2175 40.641 32.1965 40.641C32.1776 40.641 32.1622 40.722 32.1622 40.8212C32.1622 41.0119 31.9274 41.4815 31.832 41.4815C31.8059 41.4815 31.7846 41.5085 31.7846 41.5413C31.7846 41.5744 31.7152 41.6014 31.6303 41.6014C31.5452 41.6014 31.4758 41.5744 31.4758 41.5413C31.4758 41.5085 31.4531 41.4815 31.4254 41.4815C31.3583 41.4815 31.1668 41.1494 31.1668 41.0332C31.1668 40.9825 31.1513 40.9411 31.1324 40.9411C31.1137 40.9411 31.0982 40.7926 31.0982 40.6108C31.0982 40.4293 31.0828 40.2808 31.0639 40.2808C31.045 40.2808 31.0295 40.1323 31.0295 39.9505C31.0295 39.769 31.045 39.6205 31.0639 39.6205C31.0828 39.6205 31.0982 39.4717 31.0982 39.2902C31.0982 39.1087 31.1137 38.9602 31.1324 38.9602C31.1513 38.9602 31.1668 38.9041 31.1668 38.8358C31.1668 38.69 31.2428 38.5399 31.3168 38.5399C31.3454 38.5399 31.3783 38.5129 31.39 38.4799C31.4017 38.4468 31.4411 38.4198 31.4777 38.4198C31.5145 38.4198 31.5443 38.3928 31.5443 38.3597C31.5443 38.3267 31.583 38.2996 31.6303 38.2996C31.6774 38.2996 31.7161 38.3267 31.7161 38.3597ZM34.4276 38.3597C34.4276 38.3928 34.4902 38.4198 34.5665 38.4198C34.7128 38.4198 34.8739 38.6213 34.8739 38.8038C34.8739 38.8529 34.8893 38.9096 34.9082 38.93C34.9271 38.9505 34.9426 39.0465 34.9426 39.1438C34.9426 39.2409 34.9271 39.3204 34.9082 39.3204C34.8893 39.3204 34.8739 39.3763 34.8739 39.4447C34.8739 39.5919 34.7977 39.7404 34.7219 39.7404C34.6922 39.7404 34.6679 39.7674 34.6679 39.8005C34.6679 39.8361 34.5421 39.8605 34.3591 39.8605C34.1759 39.8605 34.0501 39.8361 34.0501 39.8005C34.0501 39.7674 34.0181 39.7404 33.979 39.7404C33.8774 39.7404 33.8098 39.5982 33.8098 39.3846C33.8098 39.2831 33.7943 39.2002 33.7756 39.2002C33.7567 39.2002 33.7412 39.1462 33.7412 39.0801C33.7412 39.0142 33.7567 38.9602 33.7756 38.9602C33.7943 38.9602 33.8098 38.9041 33.8098 38.8358C33.8098 38.7028 33.8842 38.5399 33.9446 38.5399C33.9649 38.5399 33.9815 38.5129 33.9815 38.4799C33.9815 38.4468 34.0434 38.4198 34.1188 38.4198C34.1943 38.4198 34.256 38.3928 34.256 38.3597C34.256 38.3267 34.2947 38.2996 34.3418 38.2996C34.3891 38.2996 34.4276 38.3267 34.4276 38.3597ZM37.1393 38.3597C37.1393 38.3928 37.1781 38.4198 37.2251 38.4198C37.2724 38.4198 37.3109 38.4468 37.3109 38.4799C37.3109 38.5129 37.3419 38.5399 37.3797 38.5399C37.4254 38.5399 37.4483 38.5798 37.4483 38.6598C37.4483 38.7259 37.4638 38.78 37.4827 38.78C37.5014 38.78 37.5169 38.8324 37.5169 38.8964C37.5169 38.9607 37.5323 39.0297 37.5512 39.0502C37.5701 39.0706 37.5856 39.1803 37.5856 39.2939V39.5003H37.0192H36.4529V39.2902C36.4529 39.1748 36.4684 39.0801 36.4871 39.0801C36.506 39.0801 36.5215 39.0155 36.5215 38.9366C36.5215 38.8574 36.5448 38.7773 36.5731 38.7582C36.6013 38.7393 36.6245 38.6824 36.6245 38.6317C36.6245 38.5798 36.6544 38.5399 36.6931 38.5399C36.7309 38.5399 36.7618 38.5129 36.7618 38.4799C36.7618 38.4468 36.8072 38.4198 36.8627 38.4198C36.9182 38.4198 36.9733 38.3928 36.985 38.3597C36.9965 38.3267 37.0361 38.2996 37.0727 38.2996C37.1093 38.2996 37.1393 38.3267 37.1393 38.3597ZM46.8877 38.3597C46.8877 38.3928 46.9346 38.4198 46.9922 38.4198C47.1041 38.4198 47.2652 38.6464 47.2652 38.8038C47.2652 38.8529 47.2807 38.9096 47.2996 38.93C47.3185 38.9505 47.334 39.0465 47.334 39.1438C47.334 39.2409 47.3494 39.3204 47.3681 39.3204C47.3888 39.3204 47.4025 39.5604 47.4025 39.9206C47.4025 40.2808 47.3888 40.5208 47.3681 40.5208C47.3494 40.5208 47.334 40.6155 47.334 40.731C47.334 40.8466 47.3185 40.9411 47.2996 40.9411C47.2807 40.9411 47.2652 40.9891 47.2652 41.0478C47.2652 41.1066 47.2343 41.1937 47.1965 41.2412C47.1589 41.2889 47.128 41.3624 47.128 41.4046C47.128 41.4469 47.0893 41.4815 47.0422 41.4815C46.9949 41.4815 46.9562 41.5085 46.9562 41.5413C46.9562 41.5744 46.8868 41.6014 46.8019 41.6014C46.7169 41.6014 46.6474 41.5744 46.6474 41.5413C46.6474 41.5085 46.6235 41.4815 46.5943 41.4815C46.5334 41.4815 46.3755 41.1895 46.374 41.0743C46.3733 41.0319 46.3496 40.9817 46.3213 40.9629C46.2895 40.9416 46.2698 40.8503 46.2698 40.7247C46.2698 40.6126 46.2544 40.5208 46.2355 40.5208C46.2151 40.5208 46.2011 40.3007 46.2011 39.9807C46.2011 39.6604 46.2151 39.4403 46.2355 39.4403C46.2544 39.4403 46.2698 39.3322 46.2698 39.2002C46.2698 39.068 46.2842 38.9602 46.3018 38.9602C46.3195 38.9602 46.3444 38.9017 46.3574 38.8301C46.3937 38.6302 46.5317 38.4198 46.6267 38.4198C46.6736 38.4198 46.7215 38.3928 46.7332 38.3597C46.7449 38.3267 46.7843 38.2996 46.8211 38.2996C46.8577 38.2996 46.8877 38.3267 46.8877 38.3597ZM49.5478 38.3597C49.5595 38.3928 49.6075 38.4198 49.6544 38.4198C49.7993 38.4198 49.9769 38.8345 49.9769 39.1729C49.9769 39.264 49.9966 39.3204 50.0284 39.3204C50.0707 39.3204 50.0798 39.4264 50.0798 39.914C50.0798 40.3868 50.0693 40.515 50.0284 40.5426C49.996 40.5644 49.9769 40.6562 49.9769 40.7897C49.9769 40.944 49.9487 41.0539 49.8739 41.1906C49.8173 41.2944 49.771 41.402 49.771 41.4303C49.771 41.4584 49.7323 41.4815 49.6852 41.4815C49.6379 41.4815 49.5994 41.5085 49.5994 41.5413C49.5994 41.5744 49.5298 41.6014 49.4449 41.6014C49.36 41.6014 49.2904 41.5744 49.2904 41.5413C49.2904 41.5085 49.2595 41.4815 49.2217 41.4815C49.184 41.4815 49.1531 41.4469 49.1531 41.4046C49.1531 41.3624 49.1222 41.2889 49.0844 41.2412C49.0466 41.1937 49.0157 41.1192 49.0157 41.0759C49.0157 41.0329 48.9926 40.9817 48.9643 40.9629C48.9293 40.9392 48.9128 40.8435 48.9128 40.6646C48.9128 40.5195 48.8974 40.4009 48.8785 40.4009C48.8585 40.4009 48.8441 40.2008 48.8441 39.9206C48.8441 39.6404 48.8585 39.4403 48.8785 39.4403C48.8974 39.4403 48.9128 39.3351 48.9128 39.2065C48.9128 39.0544 48.9307 38.961 48.9643 38.9384C48.9926 38.9193 49.0157 38.8613 49.0157 38.8091C49.0157 38.663 49.1744 38.4198 49.2697 38.4198C49.3166 38.4198 49.3645 38.3928 49.3762 38.3597C49.3879 38.3267 49.4264 38.2996 49.462 38.2996C49.4975 38.2996 49.5362 38.3267 49.5478 38.3597ZM12.8413 38.78C13.0833 39.216 13.0426 39.3204 12.6314 39.3204H12.2881V39.1402C12.2881 39.0413 12.3035 38.9602 12.3224 38.9602C12.3413 38.9602 12.3568 38.9311 12.3568 38.8957C12.3568 38.8002 12.4471 38.6598 12.5087 38.6598C12.5384 38.6598 12.5627 38.6328 12.5627 38.6C12.5627 38.4578 12.7184 38.5586 12.8413 38.78ZM18.4838 38.6C18.4954 38.6328 18.5284 38.6598 18.5569 38.6598C18.6406 38.6598 18.7069 38.8172 18.7069 39.0158C18.7069 39.1173 18.7223 39.2002 18.7412 39.2002C18.7601 39.2002 18.7756 39.2272 18.7756 39.2603C18.7756 39.2965 18.6268 39.3204 18.3979 39.3204C18.0433 39.3204 18.0203 39.313 18.0203 39.2002C18.0203 39.1341 18.0358 39.0801 18.0547 39.0801C18.0736 39.0801 18.089 39.0242 18.089 38.9557C18.089 38.8875 18.1111 38.7928 18.1381 38.7456C18.1651 38.6986 18.2191 38.6598 18.2582 38.6598C18.2972 38.6598 18.3293 38.6328 18.3293 38.6C18.3293 38.567 18.3593 38.5399 18.3959 38.5399C18.4325 38.5399 18.4721 38.567 18.4838 38.6ZM25.8979 38.6C25.9096 38.6328 25.9426 38.6598 25.9711 38.6598C26.0311 38.6598 26.1211 38.8015 26.1211 38.8957C26.1211 38.9311 26.1365 38.9602 26.1554 38.9602C26.1743 38.9602 26.1898 39.0413 26.1898 39.1402V39.3204H25.8464H25.5032V39.1402C25.5032 39.0413 25.5187 38.9602 25.5376 38.9602C25.5565 38.9602 25.5719 38.9311 25.5719 38.8957C25.5719 38.8015 25.6619 38.6598 25.7218 38.6598C25.7504 38.6598 25.7833 38.6328 25.795 38.6C25.8067 38.567 25.8298 38.5399 25.8464 38.5399C25.8631 38.5399 25.8864 38.567 25.8979 38.6ZM23.1691 39.8605V41.0612H22.9093C22.6433 41.0612 22.5512 40.9938 22.5512 40.7989C22.5512 40.7488 22.5358 40.6913 22.5169 40.6709C22.4968 40.6491 22.4827 40.2902 22.4827 39.797C22.4827 39.2792 22.4957 38.9602 22.5169 38.9602C22.5358 38.9602 22.5512 38.9319 22.5512 38.8975C22.5512 38.7262 22.6435 38.6645 22.9031 38.6622L23.1691 38.6598V39.8605ZM5.6977 40.731C5.6977 41.0211 5.68945 41.0612 5.62915 41.0612C5.59135 41.0612 5.56045 41.0883 5.56045 41.1213C5.56045 41.1541 5.4937 41.1811 5.4121 41.1811C5.2453 41.1811 5.0707 40.9332 5.1454 40.8023C5.1661 40.7664 5.1829 40.7008 5.1829 40.6564C5.1829 40.4778 5.2687 40.4054 5.4832 40.403L5.6977 40.4009V40.731ZM34.0501 41.9015C34.0501 41.9345 34.1197 41.9616 34.2046 41.9616C34.3136 41.9616 34.3591 41.9862 34.3591 42.045C34.3591 42.0927 34.4071 42.1426 34.4705 42.1609C34.796 42.2551 34.9426 42.4262 34.9426 42.7121C34.9426 42.8808 34.8053 43.1623 34.723 43.1623C34.695 43.1623 34.6625 43.1893 34.6508 43.2223C34.6391 43.2554 34.5146 43.2824 34.3742 43.2824C34.2268 43.2824 34.1188 43.257 34.1188 43.2223C34.1188 43.1893 34.0717 43.1623 34.0142 43.1623C33.8464 43.1623 33.7412 42.9319 33.7412 42.5647C33.7412 42.3981 33.7567 42.2617 33.7756 42.2617C33.7943 42.2617 33.8098 42.2066 33.8098 42.1392C33.8098 42.0717 33.8291 41.9784 33.8527 41.9314C33.9019 41.8338 34.0501 41.8115 34.0501 41.9015Z" fill="#04ACCC"/>
<path fill-rule="evenodd" clip-rule="evenodd" d="M36.7379 39.485C36.9039 39.4961 37.1666 39.4961 37.3214 39.4848C37.4762 39.4738 37.3403 39.4648 37.0193 39.4648C36.6985 39.4648 36.5717 39.474 36.7379 39.485ZM33.3638 48.5949C33.3638 48.7436 33.3484 48.8651 33.3295 48.8651C33.3106 48.8651 33.2951 48.9866 33.2951 49.1353C33.2951 49.2838 33.2796 49.4055 33.2607 49.4055C33.2418 49.4055 33.2264 49.3785 33.2264 49.3454C33.2264 49.3124 33.1724 49.2853 33.1062 49.2853C33.0402 49.2853 32.9861 49.3124 32.9861 49.3454C32.9861 49.3785 32.9012 49.4055 32.7974 49.4055C32.6936 49.4055 32.6086 49.4323 32.6086 49.4653C32.6086 49.4984 32.5777 49.5254 32.54 49.5254C32.5022 49.5254 32.4713 49.5524 32.4713 49.5855C32.4713 49.6185 32.4548 49.6455 32.4346 49.6455C32.387 49.6455 32.2997 49.7982 32.2997 49.8814C32.2997 49.9168 32.2842 49.9456 32.2653 49.9456C32.2464 49.9456 32.231 50.0267 32.231 50.1259C32.231 50.2248 32.2156 50.3058 32.1967 50.3058C32.1778 50.3058 32.1623 50.4273 32.1623 50.576C32.1623 50.7245 32.147 50.8462 32.1281 50.8462C32.1074 50.8462 32.0938 51.0863 32.0938 51.4465C32.0938 51.8066 32.1074 52.0467 32.1281 52.0467C32.147 52.0467 32.1623 52.0876 32.1623 52.1375C32.1623 52.261 32.3455 52.5871 32.4149 52.5871C32.446 52.5871 32.4713 52.6141 32.4713 52.6469C32.4713 52.6839 32.6429 52.707 32.9176 52.707C33.1921 52.707 33.3638 52.6839 33.3638 52.6469C33.3638 52.6141 33.4067 52.5871 33.4591 52.5871C33.5992 52.5871 33.6727 52.4011 33.6727 52.0462C33.6727 51.8814 33.6881 51.7466 33.707 51.7466C33.7264 51.7466 33.7413 51.5766 33.7413 51.3565C33.7413 51.1364 33.7563 50.9661 33.7757 50.9661C33.795 50.9661 33.8099 50.7961 33.8099 50.576C33.8099 50.3559 33.8249 50.1857 33.8442 50.1857C33.8631 50.1857 33.8786 50.0487 33.8786 49.8814C33.8786 49.6907 33.898 49.5432 33.9301 49.4868C33.9628 49.4296 33.9816 49.2819 33.9816 49.0828C33.9816 48.9102 33.9998 48.7371 34.0222 48.6982C34.1428 48.4871 33.9884 48.3249 33.6668 48.3249H33.3638V48.5949ZM37.8689 48.4147C37.8454 48.4616 37.826 48.6361 37.826 48.8027C37.826 48.969 37.8106 49.1051 37.7917 49.1051C37.7722 49.1051 37.7573 49.2832 37.7573 49.5191C37.7573 49.8315 37.7447 49.9412 37.7058 49.9674C37.6679 49.9929 37.6544 50.0975 37.6544 50.3641C37.6544 50.5653 37.6391 50.7261 37.62 50.7261C37.6011 50.7261 37.5857 50.8746 37.5857 51.0561C37.5857 51.2379 37.5703 51.3864 37.5514 51.3864C37.532 51.3864 37.517 51.5564 37.517 51.7765C37.517 51.9966 37.5022 52.1668 37.4828 52.1668C37.4303 52.1668 37.4418 52.5241 37.4975 52.6212C37.6608 52.9071 38.1349 52.6676 38.1349 52.2993C38.1349 52.122 38.1967 51.9268 38.2526 51.9268C38.2634 51.9268 38.2723 52.0076 38.2723 52.1068C38.2723 52.2059 38.2877 52.287 38.3066 52.287C38.3254 52.287 38.3408 52.335 38.3408 52.3935C38.3408 52.6233 38.4602 52.707 38.7875 52.707H39.096V52.437C39.096 52.2883 39.0806 52.1668 39.0617 52.1668C39.0428 52.1668 39.0274 52.1128 39.0274 52.0467C39.0274 51.9806 39.0119 51.9268 38.993 51.9268C38.9741 51.9268 38.9587 51.8591 38.9587 51.7765C38.9587 51.6941 38.9432 51.6264 38.9245 51.6264C38.9056 51.6264 38.8901 51.5724 38.8901 51.5065C38.8901 51.4396 38.8672 51.3864 38.8385 51.3864C38.807 51.3864 38.787 51.3302 38.787 51.2413C38.787 51.1616 38.7679 51.0805 38.7442 51.0611C38.7098 51.0333 38.7098 51.0191 38.7442 50.9913C38.7679 50.9719 38.787 50.9045 38.787 50.841C38.787 50.7778 38.8037 50.7261 38.8238 50.7261C38.8631 50.7261 38.9587 50.5787 38.9587 50.5183C38.9587 50.4562 39.1948 50.0658 39.2321 50.0658C39.2516 50.0658 39.2677 50.0312 39.2677 49.9889C39.2677 49.9467 39.2986 49.8732 39.3364 49.8255C39.3766 49.7749 39.4049 49.6702 39.4049 49.5723V49.4055H39.0421C38.668 49.4055 38.5811 49.4553 38.5811 49.6712C38.5811 49.7232 38.5657 49.7657 38.5468 49.7657C38.528 49.7657 38.5126 49.8061 38.5126 49.8557C38.5126 49.9052 38.4893 49.9456 38.461 49.9456C38.4328 49.9456 38.4095 49.9727 38.4095 50.0057C38.4095 50.0388 38.3941 50.0658 38.3752 50.0658C38.3563 50.0658 38.3408 49.9981 38.3408 49.9157C38.3408 49.8331 38.3563 49.7657 38.3752 49.7657C38.3941 49.7657 38.4095 49.6198 38.4095 49.4417C38.4095 49.2095 38.4241 49.1083 38.461 49.0836C38.4989 49.0582 38.5126 48.9532 38.5126 48.687V48.3249L38.2121 48.327C37.997 48.3286 37.8997 48.3535 37.8689 48.4147ZM42.2196 48.4467C42.2196 48.5138 42.1964 48.5841 42.168 48.6033C42.1312 48.6279 42.1166 48.7292 42.1166 48.9616V49.2853H41.9278C41.824 49.2853 41.739 49.3124 41.739 49.3454C41.739 49.3785 41.6646 49.4055 41.5739 49.4055C41.4562 49.4055 41.3876 49.4399 41.3351 49.5254C41.2944 49.5915 41.2376 49.6455 41.2085 49.6455C41.1764 49.6455 41.1556 49.6991 41.1556 49.7814C41.1556 49.8562 41.117 49.9677 41.0698 50.0299C41.0041 50.1159 40.9839 50.1972 40.9839 50.3743C40.9839 50.5018 40.9685 50.6059 40.9496 50.6059C40.8915 50.6059 40.9052 52.0978 40.9643 52.2012C40.9913 52.2482 41.0233 52.287 41.0354 52.287C41.0653 52.287 41.1556 52.4478 41.1556 52.501C41.1556 52.5247 41.1825 52.5797 41.2155 52.6236C41.2866 52.718 42.1166 52.7429 42.1166 52.6506C42.1166 52.6194 42.1823 52.5855 42.2626 52.5756C42.3994 52.5582 42.4091 52.5451 42.4192 52.362C42.425 52.2547 42.4443 52.1668 42.462 52.1668C42.4797 52.1668 42.4942 51.9942 42.4942 51.783C42.4942 51.4974 42.5073 51.3903 42.5456 51.3646C42.5819 51.3405 42.5972 51.2416 42.5972 51.0317C42.5972 50.8675 42.6126 50.7164 42.6315 50.6959C42.6503 50.6757 42.6657 50.485 42.6657 50.2723C42.6657 50.0545 42.6807 49.8856 42.7001 49.8856C42.7194 49.8856 42.7345 49.7156 42.7345 49.4955C42.7345 49.2754 42.7495 49.1051 42.7688 49.1051C42.7882 49.1051 42.8032 48.9351 42.8032 48.715V48.3249H42.5114C42.2409 48.3249 42.2196 48.3339 42.2196 48.4467ZM54.6796 48.655C54.6796 48.8365 54.6641 48.9852 54.6452 48.9852C54.6263 48.9852 54.6108 49.0797 54.6108 49.1954C54.6108 49.342 54.5954 49.4055 54.5594 49.4055C54.531 49.4055 54.5079 49.3785 54.5079 49.3454C54.5079 49.3124 54.4616 49.2853 54.4049 49.2853C54.3484 49.2853 54.302 49.3124 54.302 49.3454C54.302 49.3785 54.2169 49.4055 54.1131 49.4055C54.0093 49.4055 53.9244 49.4323 53.9244 49.4653C53.9244 49.4984 53.8928 49.5254 53.8542 49.5254C53.781 49.5254 53.6154 49.7736 53.6154 49.8829C53.6154 49.9173 53.6 49.9456 53.5811 49.9456C53.5622 49.9456 53.5467 49.8357 53.5467 49.7011C53.5467 49.5668 53.5247 49.4184 53.4979 49.3711C53.4422 49.2738 53.2379 49.2536 53.2379 49.3454C53.2379 49.3821 53.0777 49.4055 52.826 49.4055H52.4141V49.7355C52.4141 49.9171 52.3986 50.0658 52.3797 50.0658C52.3604 50.0658 52.3454 50.2358 52.3454 50.4559C52.3454 50.7628 52.3345 50.8462 52.294 50.8462C52.2535 50.8462 52.2425 50.9294 52.2425 51.2363C52.2425 51.4564 52.2275 51.6264 52.2081 51.6264C52.1877 51.6264 52.1738 51.8473 52.1738 52.1692V52.7117L52.4741 52.6944L52.7745 52.6771L52.785 52.4218C52.7909 52.2815 52.8101 52.1668 52.828 52.1668C52.8458 52.1668 52.8604 52.0181 52.8604 51.8366C52.8604 51.655 52.8758 51.5065 52.8947 51.5065C52.914 51.5065 52.9289 51.3363 52.9289 51.1162C52.9289 50.8961 52.9439 50.7261 52.9632 50.7261C52.9821 50.7261 52.9976 50.6584 52.9976 50.576C52.9976 50.4559 53.0147 50.426 53.0834 50.426C53.1307 50.426 53.1692 50.399 53.1692 50.3659C53.1692 50.3329 53.2388 50.3058 53.3237 50.3058C53.4537 50.3058 53.4782 50.2875 53.4782 50.1894C53.4782 50.1253 53.4937 50.0561 53.5126 50.0356C53.5319 50.0146 53.5467 50.065 53.5467 50.1521C53.5467 50.2366 53.5313 50.3058 53.5126 50.3058C53.4937 50.3058 53.4782 50.4543 53.4782 50.6361C53.4782 50.8895 53.4662 50.9661 53.4266 50.9661C53.3849 50.9661 53.3751 51.0632 53.3751 51.4782C53.3751 51.8783 53.3864 51.9982 53.4266 52.0249C53.455 52.0441 53.4782 52.0984 53.4782 52.1458C53.4782 52.2497 53.6316 52.5278 53.7465 52.632C53.8475 52.7238 54.6308 52.7366 54.6623 52.6469C54.674 52.6141 54.729 52.5871 54.7845 52.5871C54.8514 52.5871 54.8855 52.5567 54.8855 52.4969C54.8855 52.4475 54.9086 52.4069 54.937 52.4069C54.9765 52.4069 54.9884 52.3303 54.9884 52.0769C54.9884 51.8951 55.0038 51.7466 55.0227 51.7466C55.0421 51.7466 55.0571 51.5766 55.0571 51.3565C55.0571 51.1364 55.0721 50.9661 55.0914 50.9661C55.1103 50.9661 55.1258 50.8176 55.1258 50.6361C55.1258 50.4543 55.1412 50.3058 55.1601 50.3058C55.1795 50.3058 55.1944 50.1358 55.1944 49.9157C55.1944 49.6956 55.2093 49.5254 55.2287 49.5254C55.2479 49.5254 55.263 49.3625 55.263 49.1568C55.263 48.884 55.2778 48.7696 55.3196 48.7161C55.4906 48.4973 55.3519 48.3249 55.0049 48.3249H54.6796V48.655ZM34.8055 49.3454C34.8055 49.3785 34.7204 49.4055 34.6166 49.4055C34.5128 49.4055 34.4277 49.4323 34.4277 49.4653C34.4277 49.4984 34.4017 49.5254 34.3697 49.5254C34.2911 49.5254 34.1189 49.8216 34.1189 49.9569C34.1189 50.0167 34.1035 50.0658 34.0846 50.0658C34.0657 50.0658 34.0502 50.1198 34.0502 50.1857C34.0502 50.2518 34.0347 50.3058 34.0158 50.3058C33.9971 50.3058 33.9816 50.4244 33.9816 50.5695C33.9816 50.7487 33.965 50.8444 33.9301 50.8678C33.8896 50.895 33.8786 51.0183 33.8786 51.4465C33.8786 51.8746 33.8896 51.9979 33.9301 52.0249C33.9584 52.0441 33.9816 52.0984 33.9816 52.1458C33.9816 52.2497 34.1351 52.5278 34.25 52.632C34.3481 52.7211 35.183 52.7382 35.183 52.6511C35.183 52.6201 35.2254 52.5863 35.2773 52.5761C35.3703 52.5572 35.3718 52.5496 35.3817 52.0918L35.3918 51.6264H35.253C35.1767 51.6264 35.1143 51.6534 35.1143 51.6865C35.1143 51.8271 34.6694 51.7544 34.5808 51.5991C34.4575 51.3835 34.4513 51.3864 35.0285 51.3864H35.5605V51.2363C35.5605 51.1537 35.576 51.0863 35.5949 51.0863C35.615 51.0863 35.6293 50.8761 35.6293 50.576C35.6293 50.2759 35.615 50.0658 35.5949 50.0658C35.576 50.0658 35.5605 50.0097 35.5605 49.9414C35.5605 49.8158 35.4872 49.6455 35.4332 49.6455C35.4171 49.6455 35.3817 49.5915 35.3546 49.5254C35.3184 49.4375 35.2658 49.4055 35.1583 49.4055C35.0774 49.4055 35.0114 49.3785 35.0114 49.3454C35.0114 49.3124 34.9651 49.2853 34.9084 49.2853C34.8518 49.2853 34.8055 49.3124 34.8055 49.3454ZM36.7619 49.3454C36.7619 49.3819 36.6067 49.4055 36.3647 49.4055C35.8877 49.4055 35.8694 49.4249 35.8694 49.9349C35.8694 50.1978 35.8558 50.3022 35.818 50.3276C35.7802 50.3531 35.7665 50.4577 35.7665 50.7243C35.7665 50.9255 35.7512 51.0863 35.7321 51.0863C35.7132 51.0863 35.6978 51.2348 35.6978 51.4163C35.6978 51.5981 35.6824 51.7466 35.6635 51.7466C35.6435 51.7466 35.6293 51.9475 35.6293 52.2293V52.7117L35.9296 52.6944C36.2114 52.6781 36.2306 52.6687 36.2408 52.542C36.247 52.4677 36.2661 52.4069 36.2837 52.4069C36.3012 52.4069 36.3156 52.2314 36.3156 52.0168C36.3156 51.7967 36.3306 51.6264 36.35 51.6264C36.3689 51.6264 36.3844 51.4779 36.3844 51.2964C36.3844 51.1149 36.3998 50.9661 36.4187 50.9661C36.4376 50.9661 36.453 50.8562 36.453 50.7216C36.453 50.4299 36.5136 50.3058 36.6564 50.3058H36.7619V50.7862C36.7619 51.0663 36.7476 51.2662 36.7275 51.2662C36.7086 51.2662 36.6932 51.415 36.6932 51.5965C36.6932 51.7781 36.6777 51.9268 36.659 51.9268C36.6396 51.9268 36.6246 52.0968 36.6246 52.3169V52.707H36.9039C37.244 52.707 37.2742 52.6598 37.2757 52.1217C37.2766 51.8292 37.2881 51.7466 37.3283 51.7466C37.3678 51.7466 37.3798 51.67 37.3798 51.4163C37.3798 51.2348 37.3952 51.0863 37.4141 51.0863C37.4349 51.0863 37.4484 50.826 37.4484 50.426C37.4484 50.0626 37.4348 49.7657 37.4181 49.7657C37.4014 49.7657 37.3797 49.7116 37.3698 49.6455C37.359 49.5737 37.323 49.5254 37.28 49.5254C37.2405 49.5254 37.2081 49.4984 37.2081 49.4653C37.2081 49.4323 37.1618 49.4055 37.1051 49.4055C37.0485 49.4055 37.0022 49.3785 37.0022 49.3454C37.0022 49.3124 36.9482 49.2853 36.882 49.2853C36.816 49.2853 36.7619 49.3124 36.7619 49.3454ZM43.5583 49.3454C43.5583 49.3785 43.4888 49.4055 43.4038 49.4055C43.3189 49.4055 43.2494 49.4323 43.2494 49.4653C43.2494 49.4984 43.2254 49.5254 43.1963 49.5254C43.1366 49.5254 42.9747 49.7864 42.9747 49.8829C42.9747 49.9173 42.9515 49.9456 42.9233 49.9456C42.8947 49.9456 42.8717 49.9989 42.8717 50.0658C42.8717 50.1316 42.8563 50.1857 42.8375 50.1857C42.8186 50.1857 42.8032 50.2804 42.8032 50.3958C42.8032 50.5115 42.7877 50.6059 42.7688 50.6059C42.7477 50.6059 42.7345 50.9061 42.7345 51.3864C42.7345 51.8667 42.7477 52.1668 42.7688 52.1668C42.7877 52.1668 42.8032 52.2209 42.8032 52.287C42.8032 52.3749 42.8259 52.4069 42.8889 52.4069C42.936 52.4069 42.9747 52.4357 42.9747 52.4711C42.9747 52.6553 43.076 52.707 43.4357 52.707C43.6547 52.707 43.7985 52.6834 43.7985 52.6469C43.7985 52.6141 43.8282 52.5871 43.8647 52.5871C43.9012 52.5871 43.9541 52.5464 43.9825 52.4969C44.0108 52.4475 44.0435 52.4069 44.055 52.4069C44.0978 52.4069 44.2448 52.1094 44.2448 52.0231C44.2448 51.974 44.2603 51.9171 44.2792 51.8966C44.2979 51.8762 44.3133 51.7802 44.3133 51.6831C44.3133 51.586 44.3288 51.5065 44.3477 51.5065C44.3666 51.5065 44.3821 51.3693 44.3821 51.202C44.3821 51.0115 44.4012 50.8638 44.4335 50.8074C44.462 50.7578 44.4851 50.6109 44.4851 50.4798C44.4851 50.3239 44.4672 50.23 44.4335 50.2075C44.4039 50.1878 44.3821 50.0981 44.3821 49.9973C44.3821 49.7198 44.1821 49.4055 44.0055 49.4055C43.9295 49.4055 43.8673 49.3785 43.8673 49.3454C43.8673 49.3124 43.7977 49.2853 43.7128 49.2853C43.6277 49.2853 43.5583 49.3124 43.5583 49.3454ZM45.3774 49.3454C45.3774 49.3785 45.296 49.4055 45.1962 49.4055C45.0545 49.4055 45.0042 49.4315 44.9655 49.5254C44.9384 49.5915 44.8896 49.6455 44.8574 49.6455C44.825 49.6455 44.7876 49.7064 44.7741 49.7806C44.7608 49.8549 44.721 49.9593 44.6861 50.0128C44.651 50.0661 44.6223 50.181 44.6223 50.2678C44.6223 50.3549 44.6069 50.426 44.588 50.426C44.5691 50.426 44.5536 50.5474 44.5536 50.6959C44.5536 50.8447 44.5382 50.9661 44.5193 50.9661C44.4993 50.9661 44.4851 51.1663 44.4851 51.4465C44.4851 51.7266 44.4993 51.9268 44.5193 51.9268C44.5382 51.9268 44.5536 51.9968 44.5536 52.0826C44.5536 52.2484 44.729 52.5871 44.8148 52.5871C44.841 52.5871 44.8626 52.6141 44.8626 52.6469C44.8626 52.6839 45.0342 52.707 45.3087 52.707C45.5633 52.707 45.755 52.6828 45.755 52.6508C45.755 52.6199 45.8053 52.586 45.8666 52.5758C45.9623 52.5595 45.9797 52.5312 45.9894 52.377C45.9956 52.2778 46.0148 52.171 46.0323 52.1398C46.0802 52.0535 46.0703 51.809 46.0149 51.7122C45.9596 51.6154 45.6864 51.5942 45.6864 51.6865C45.6864 51.7203 45.5891 51.7466 45.4632 51.7466C45.3374 51.7466 45.2402 51.7203 45.2402 51.6865C45.2402 51.6534 45.2169 51.6264 45.1887 51.6264C45.1601 51.6264 45.1372 51.5732 45.1372 51.5065C45.1372 51.3922 45.1601 51.3864 45.6202 51.3864C45.9931 51.3864 46.1144 51.3667 46.1522 51.3006C46.2109 51.198 46.2245 49.9456 46.1669 49.9456C46.148 49.9456 46.1325 49.8898 46.1325 49.8213C46.1325 49.6621 46.0546 49.5254 45.9635 49.5254C45.9244 49.5254 45.8924 49.4984 45.8924 49.4653C45.8924 49.4323 45.8306 49.4055 45.755 49.4055C45.6795 49.4055 45.6177 49.3785 45.6177 49.3454C45.6177 49.3124 45.5637 49.2853 45.4976 49.2853C45.4316 49.2853 45.3774 49.3124 45.3774 49.3454ZM51.2813 49.3454C51.2813 49.3785 51.2118 49.4055 51.1269 49.4055C51.0419 49.4055 50.9724 49.4323 50.9724 49.4653C50.9724 49.4984 50.9415 49.5254 50.9037 49.5254C50.8661 49.5254 50.8352 49.5524 50.8352 49.5855C50.8352 49.6185 50.8186 49.6455 50.7983 49.6455C50.7509 49.6455 50.6634 49.7982 50.6634 49.8814C50.6634 49.9168 50.648 49.9456 50.6292 49.9456C50.6103 49.9456 50.5949 49.9997 50.5949 50.0658C50.5949 50.1316 50.5795 50.1857 50.5606 50.1857C50.5417 50.1857 50.5262 50.2804 50.5262 50.3958C50.5262 50.5115 50.5107 50.6059 50.4918 50.6059C50.4708 50.6059 50.4575 50.8961 50.4575 51.3562V52.1065L50.5909 52.3468C50.6642 52.479 50.7491 52.5871 50.7797 52.5871C50.8102 52.5871 50.8352 52.6141 50.8352 52.6469C50.8352 52.6828 50.9667 52.707 51.1613 52.707C51.3557 52.707 51.4872 52.6828 51.4872 52.6469C51.4872 52.6141 51.5277 52.5871 51.5771 52.5871C51.7143 52.5871 52.0366 51.9717 52.0366 51.7096C52.0366 51.6639 52.052 51.6264 52.0709 51.6264C52.0897 51.6264 52.1051 51.4779 52.1051 51.2964C52.1051 51.1149 52.1205 50.9661 52.1394 50.9661C52.1592 50.9661 52.1738 50.7762 52.1738 50.516C52.1738 50.2557 52.1592 50.0658 52.1394 50.0658C52.1205 50.0658 52.1051 50.0104 52.1051 49.943C52.1051 49.8153 51.9634 49.5254 51.9008 49.5254C51.881 49.5254 51.8649 49.4984 51.8649 49.4653C51.8649 49.4323 51.804 49.4055 51.7296 49.4055C51.6552 49.4055 51.5847 49.3785 51.5732 49.3454C51.5615 49.3124 51.491 49.2853 51.4166 49.2853C51.3422 49.2853 51.2813 49.3124 51.2813 49.3454ZM48.0204 50.9745C48.0204 52.8111 47.9969 52.7033 48.398 52.7033C48.651 52.7033 48.7757 52.628 48.7757 52.4753C48.7757 52.4378 48.7911 52.4069 48.8099 52.4069C48.8288 52.4069 48.8442 52.3528 48.8442 52.287C48.8442 52.2209 48.8597 52.1668 48.8786 52.1668C48.8975 52.1668 48.913 52.112 48.913 52.0449C48.913 51.9777 48.936 51.9074 48.9644 51.8882C48.9938 51.8686 49.0159 51.7791 49.0159 51.6802C49.0159 51.5847 49.0313 51.5065 49.0502 51.5065C49.0691 51.5065 49.0845 51.601 49.0845 51.7167C49.0845 51.8321 49.1 51.9268 49.1189 51.9268C49.1378 51.9268 49.1532 52.0574 49.1532 52.2175C49.1532 52.6314 49.2126 52.7075 49.5335 52.7051C49.7834 52.7033 49.9083 52.6267 49.9083 52.4753C49.9083 52.4378 49.9238 52.4069 49.9427 52.4069C49.9616 52.4069 49.977 52.3557 49.977 52.2933C49.977 52.2308 50.0001 52.1642 50.0285 52.1451C50.0586 52.1249 50.08 52.0349 50.08 51.9286C50.08 51.8284 50.0954 51.7466 50.1143 51.7466C50.1332 51.7466 50.1487 51.6655 50.1487 51.5666C50.1487 51.4674 50.1641 51.3864 50.183 51.3864C50.2019 51.3864 50.2173 51.319 50.2173 51.2363C50.2173 51.1537 50.2328 51.0863 50.2515 51.0863C50.2704 51.0863 50.2859 51.0052 50.2859 50.9061C50.2859 50.8072 50.3013 50.7261 50.3202 50.7261C50.3391 50.7261 50.3546 50.6343 50.3546 50.5223C50.3546 50.3966 50.3742 50.3056 50.406 50.2841C50.4362 50.2639 50.4575 50.1739 50.4575 50.0676C50.4575 49.9674 50.4729 49.8856 50.4918 49.8856C50.5107 49.8856 50.5262 49.7775 50.5262 49.6455V49.4055H50.232C49.9018 49.4055 49.8397 49.4616 49.8397 49.7612C49.8397 49.8627 49.8242 49.9456 49.8054 49.9456C49.7865 49.9456 49.7711 50.0267 49.7711 50.1259C49.7711 50.2248 49.7556 50.3058 49.7367 50.3058C49.7178 50.3058 49.7024 50.3578 49.7024 50.421C49.7024 50.5779 49.6673 50.7261 49.6301 50.7261C49.6133 50.7261 49.5995 50.6314 49.5995 50.516C49.5995 50.4003 49.5849 50.3058 49.5671 50.3058C49.5492 50.3058 49.53 50.1909 49.5242 50.0506L49.5137 49.7956L49.2305 49.778C48.9939 49.7636 48.9473 49.7759 48.9473 49.8533C48.9473 49.9039 48.9307 49.9456 48.9106 49.9456C48.845 49.9456 48.7757 50.1133 48.7757 50.2715C48.7757 50.3565 48.7602 50.426 48.7413 50.426C48.7224 50.426 48.707 50.4934 48.707 50.576C48.707 50.6584 48.6915 50.7261 48.6726 50.7261C48.6518 50.7261 48.6383 50.4659 48.6383 50.0658V49.4055H48.3294H48.0204V50.9745ZM33.1292 50.681C33.1229 50.8874 33.1036 51.0818 33.0863 51.1133C33.0689 51.1445 33.0548 51.2998 33.0548 51.4585C33.0548 51.7718 32.9516 51.8565 32.806 51.6629C32.7247 51.5551 32.7176 50.7578 32.7974 50.7043C32.8257 50.6854 32.8488 50.6272 32.8488 50.5752C32.8488 50.4218 32.9274 50.3106 33.0377 50.3079L33.1406 50.3056L33.1292 50.681ZM34.9623 50.3916C35.0528 50.5498 35.0161 50.6059 34.8226 50.6059C34.6776 50.6059 34.6337 50.585 34.6337 50.516C34.6337 50.4664 34.6569 50.426 34.6853 50.426C34.7135 50.426 34.7367 50.399 34.7367 50.3659C34.7367 50.2749 34.9065 50.294 34.9623 50.3916ZM41.9794 50.576C41.9794 50.7245 41.9639 50.8462 41.945 50.8462C41.9261 50.8462 41.9106 50.9947 41.9106 51.1763C41.9106 51.3578 41.8952 51.5065 41.8763 51.5065C41.8574 51.5065 41.8419 51.5606 41.8419 51.6264C41.8419 51.7731 41.66 51.7972 41.5821 51.6608C41.5268 51.564 41.5145 51.0863 41.5675 51.0863C41.5864 51.0863 41.6018 50.9782 41.6018 50.8462C41.6018 50.714 41.6173 50.6059 41.636 50.6059C41.6549 50.6059 41.6704 50.5779 41.6704 50.5435C41.6704 50.4163 41.7593 50.3103 41.8677 50.3082C41.9772 50.3058 41.9794 50.3108 41.9794 50.576ZM43.7495 50.3916C43.8048 50.4884 43.817 50.9661 43.7642 50.9661C43.7453 50.9661 43.7298 51.0579 43.7298 51.17C43.7298 51.2956 43.7102 51.3867 43.6784 51.4082C43.6501 51.4271 43.6269 51.484 43.6269 51.5346C43.6269 51.6018 43.59 51.6264 43.4895 51.6264H43.3523V51.3565C43.3523 51.2077 43.3677 51.0863 43.3866 51.0863C43.4055 51.0863 43.421 50.9782 43.421 50.8462C43.421 50.714 43.4365 50.6059 43.4553 50.6059C43.4741 50.6059 43.4895 50.5779 43.4895 50.5435C43.4895 50.3402 43.6623 50.2392 43.7495 50.3916ZM45.5577 50.3895C45.668 50.5359 45.6263 50.6059 45.4289 50.6059C45.2379 50.6059 45.2027 50.5553 45.2831 50.3956C45.3371 50.2883 45.479 50.2851 45.5577 50.3895ZM51.4383 50.3916C51.4944 50.4897 51.507 51.0863 51.453 51.0863C51.4341 51.0863 51.4187 51.1692 51.4187 51.2707C51.4187 51.5879 51.2385 51.7621 51.1109 51.5682C51.039 51.4593 51.0143 51.2064 51.0753 51.2064C51.0942 51.2064 51.1097 51.0983 51.1097 50.9661C51.1097 50.8342 51.1241 50.7261 51.1418 50.7261C51.1594 50.7261 51.1844 50.6673 51.1974 50.5957C51.2477 50.3182 51.3479 50.2334 51.4383 50.3916ZM54.5079 50.3659C54.5079 50.399 54.4925 50.426 54.4736 50.426C54.4539 50.426 54.4392 50.6059 54.4392 50.8462C54.4392 51.0863 54.4246 51.2662 54.4049 51.2662C54.386 51.2662 54.3706 51.3743 54.3706 51.5065C54.3706 51.7699 54.2231 51.8575 54.1108 51.6608C54.0539 51.5614 54.041 50.8462 54.096 50.8462C54.1149 50.8462 54.1304 50.7515 54.1304 50.6361C54.1304 50.4892 54.1459 50.426 54.1819 50.426C54.2102 50.426 54.2333 50.399 54.2333 50.3659C54.2333 50.3329 54.2951 50.3058 54.3706 50.3058C54.4461 50.3058 54.5079 50.3329 54.5079 50.3659ZM39.3364 51.6264C39.3364 51.6925 39.3209 51.7466 39.302 51.7466C39.2819 51.7466 39.2677 51.9467 39.2677 52.2269V52.707H39.5594H39.8511V52.4969C39.8511 52.3814 39.8666 52.287 39.8855 52.287C39.9048 52.287 39.9198 52.1167 39.9198 51.8966V51.5065H39.6281C39.3591 51.5065 39.3364 51.516 39.3364 51.6264ZM46.2927 51.5464C46.2801 51.5684 46.27 51.6632 46.27 51.7565C46.27 51.8502 46.2537 51.9268 46.2339 51.9268C46.2116 51.9268 46.2018 52.069 46.2081 52.3019L46.2185 52.6771L46.5188 52.6944L46.8191 52.7117V52.5593C46.8191 52.4756 46.8345 52.4069 46.8534 52.4069C46.8732 52.4069 46.8878 52.2169 46.8878 51.9567V51.5065H46.6017C46.4444 51.5065 46.3053 51.5244 46.2927 51.5464ZM55.1944 51.7765C55.1944 51.9255 55.1781 52.0467 55.1583 52.0467C55.1363 52.0467 55.1262 52.17 55.1325 52.362L55.1429 52.6771L55.4132 52.6947C55.7841 52.719 55.8122 52.6705 55.8122 52.0073V51.5065H55.5033H55.1944V51.7765Z" fill="#CC0474"/>
<path fill-rule="evenodd" clip-rule="evenodd" d="M32.0938 11.286V15.1279H34.3078H36.5216V11.286V7.44385H34.3078H32.0938V11.286ZM32.1165 22.4316C32.1039 22.4536 32.0938 24.2097 32.0938 26.3335V30.1956H34.3078H36.5216V26.2937V22.3917H34.3306C33.1255 22.3917 32.1291 22.4095 32.1165 22.4316Z" fill="#BCCC04"/>
<path fill-rule="evenodd" clip-rule="evenodd" d="M4.25586 45.8037V46.5839H4.68501H5.11401V45.8037V45.0233H4.99386H4.87371V45.6235V46.2237H4.71936H4.56486V45.6235V45.0233H4.41036H4.25586V45.8037ZM5.18271 45.8037V46.5839H5.47446C5.64606 46.5839 5.76621 46.5593 5.76621 46.5241C5.76621 46.491 5.78376 46.464 5.80536 46.464C5.89251 46.464 5.93571 46.2452 5.93676 45.7985C5.93826 45.1568 5.85576 45.0233 5.45751 45.0233H5.18271V45.8037ZM6.24681 45.3533C6.24681 45.5351 6.26226 45.6836 6.28101 45.6836C6.29991 45.6836 6.31536 45.7591 6.31536 45.8517C6.31536 45.9441 6.32976 46.0453 6.34731 46.0768C6.36486 46.108 6.38406 46.2285 6.39021 46.3439L6.40116 46.554L6.61581 46.5718L6.83031 46.5897V46.4068C6.83031 46.3061 6.84576 46.2237 6.86466 46.2237C6.88341 46.2237 6.89886 46.1322 6.89886 46.0202C6.89886 45.8945 6.91866 45.8032 6.95046 45.782C6.98826 45.7565 7.00191 45.6518 7.00191 45.3853V45.0233H6.84741H6.69291V45.2932C6.69291 45.442 6.67746 45.5634 6.65871 45.5634C6.63981 45.5634 6.62436 45.5364 6.62436 45.5034C6.62436 45.4706 6.60111 45.4435 6.57291 45.4435C6.53691 45.4435 6.52131 45.3801 6.52131 45.2334C6.52131 45.0283 6.51801 45.0233 6.38406 45.0233H6.24681V45.3533ZM7.16211 45.0632C7.14951 45.0852 7.13916 45.1799 7.13916 45.2733C7.13916 45.3669 7.12371 45.4435 7.10481 45.4435C7.08606 45.4435 7.07061 45.5498 7.07061 45.6799C7.07061 45.81 7.05516 45.9333 7.03626 45.9538C7.01736 45.974 7.00191 46.1243 7.00191 46.2875V46.5839H7.13916C7.26891 46.5839 7.27656 46.5739 7.27656 46.404C7.27656 46.2518 7.28991 46.2237 7.36236 46.2237C7.43481 46.2237 7.44816 46.2518 7.44816 46.404V46.5839H7.73991H8.03166V46.3998C8.03166 46.2358 8.03736 46.2253 8.08311 46.3053C8.11146 46.3549 8.13456 46.4378 8.13456 46.4897C8.13456 46.564 8.17461 46.5839 8.32341 46.5839H8.51226V45.8037V45.0233H8.39211C8.27766 45.0233 8.27196 45.0333 8.27196 45.2334C8.27196 45.4404 8.20431 45.5424 8.20221 45.3384C8.19996 45.1196 8.11776 45.0233 7.93341 45.0233H7.75701V45.5377C7.75701 45.9952 7.75131 46.0422 7.70556 45.9622C7.67721 45.9129 7.65411 45.7757 7.65411 45.6579C7.65411 45.5398 7.63866 45.4435 7.61976 45.4435C7.60086 45.4435 7.58541 45.3488 7.58541 45.2334V45.0233H7.38516C7.27506 45.0233 7.17471 45.0411 7.16211 45.0632ZM8.88981 45.8037V46.5839H9.17391C9.41871 46.5839 9.46506 46.5674 9.50766 46.464C9.57006 46.3124 9.60441 46.3129 9.68046 46.4664C9.78171 46.6705 10.3142 46.618 10.3142 46.404C10.3142 46.272 10.2976 46.2515 10.177 46.2347C9.99471 46.2096 9.93366 46.1038 10.1015 46.1038H10.2284V45.8336C10.2284 45.565 10.2278 45.5634 10.1083 45.5634C10.0423 45.5634 9.98811 45.5364 9.98811 45.5034C9.98811 45.4706 10.0423 45.4401 10.1083 45.4359C10.1744 45.4317 10.2478 45.4249 10.2713 45.421C10.2952 45.4168 10.3142 45.3334 10.3142 45.2334V45.0532L10.03 45.0359C9.73251 45.0175 9.64491 45.0765 9.64491 45.2953C9.64491 45.3698 9.61911 45.3475 9.54531 45.2095C9.44976 45.0309 9.43446 45.0233 9.16776 45.0233H8.88981V45.8037ZM10.7777 45.2305C10.7777 45.3475 10.7623 45.4435 10.7434 45.4435C10.7245 45.4435 10.709 45.5485 10.709 45.677C10.709 45.8294 10.691 45.9228 10.6576 45.9454C10.6211 45.9698 10.606 46.069 10.606 46.282V46.5839H10.7605C10.9093 46.5839 10.915 46.5774 10.915 46.404C10.915 46.2518 10.9283 46.2237 11.0008 46.2237C11.0732 46.2237 11.0866 46.2518 11.0866 46.404V46.5839H11.5328C11.9561 46.5839 11.9791 46.5779 11.9791 46.464C11.9791 46.3979 11.9945 46.3439 12.0134 46.3439C12.0322 46.3439 12.0476 46.3979 12.0476 46.464C12.0476 46.5734 12.0706 46.5839 12.3076 46.5839C12.5749 46.5839 12.6655 46.5168 12.6655 46.3182C12.6655 46.2662 12.6809 46.2237 12.6998 46.2237C12.7187 46.2237 12.7342 46.2662 12.7342 46.3182C12.7342 46.5763 13.2446 46.7203 13.3717 46.4981C13.4515 46.3586 13.4405 45.2534 13.3579 45.1225C13.202 44.8759 12.7342 45.0233 12.7342 45.3192C12.7342 45.3874 12.7187 45.4435 12.6998 45.4435C12.6809 45.4435 12.6643 45.5312 12.6628 45.6385C12.6613 45.7458 12.6523 45.7998 12.6428 45.7586C12.6332 45.7174 12.6025 45.6836 12.5744 45.6836C12.526 45.6836 12.4253 45.5472 12.4253 45.4816C12.4253 45.4648 12.4754 45.4425 12.5368 45.4323C12.6352 45.4157 12.6496 45.39 12.6592 45.2158L12.6701 45.0183L12.3674 45.0359L12.0649 45.0532L12.0545 45.3997C12.0445 45.7368 12.0887 45.9236 12.1789 45.9236C12.197 45.9236 12.2209 45.9643 12.2317 46.0136C12.2426 46.0632 12.2752 46.1038 12.304 46.1038C12.3329 46.1038 12.3566 46.1309 12.3566 46.1639C12.3566 46.1967 12.287 46.2237 12.2021 46.2237C12.0871 46.2237 12.0476 46.2006 12.0476 46.133C12.0476 45.9276 11.8907 45.5634 11.8021 45.5634C11.7673 45.5634 11.7388 45.5364 11.7388 45.5034C11.7388 45.4706 11.7928 45.4435 11.8589 45.4435C11.9735 45.4435 11.9791 45.4338 11.9791 45.2311V45.0186L11.6786 45.0359L11.3783 45.0532L11.3681 45.4283C11.3615 45.6707 11.3711 45.8037 11.3954 45.8037C11.4161 45.8037 11.4716 45.8712 11.5187 45.9538C11.566 46.0362 11.6194 46.1038 11.6374 46.1038C11.6554 46.1038 11.6701 46.1309 11.6701 46.1639C11.6701 46.1967 11.6006 46.2237 11.5156 46.2237C11.3857 46.2237 11.3612 46.2054 11.3612 46.1073C11.3612 46.0432 11.3458 45.974 11.3269 45.9538C11.308 45.9333 11.2925 45.81 11.2925 45.6799C11.2925 45.5498 11.2781 45.4435 11.2604 45.4435C11.2427 45.4435 11.2234 45.3557 11.2175 45.2484C11.2067 45.0532 11.2067 45.0532 10.9922 45.0354L10.7777 45.0175V45.2305ZM13.5322 45.1406C13.4693 45.3179 13.4743 46.3861 13.5383 46.4981C13.5722 46.5574 13.6678 46.5839 13.8473 46.5839H14.1071V46.404C14.1071 46.2429 14.096 46.2237 14.0017 46.2237C13.7444 46.2237 13.699 45.4989 13.9528 45.4435C14.0786 45.416 14.09 45.3984 14.09 45.2334V45.0532L13.8326 45.0361C13.6055 45.0212 13.5701 45.0335 13.5322 45.1406ZM14.1758 45.8001V46.5839H14.3102C14.3857 46.5839 14.4523 46.5511 14.462 46.5089C14.4758 46.4488 14.4799 46.4488 14.482 46.5089C14.4889 46.6983 14.7593 46.5957 14.7593 46.404C14.7593 46.2518 14.7727 46.2237 14.8451 46.2237C14.9176 46.2237 14.9309 46.2518 14.9309 46.404C14.9309 46.5781 14.9362 46.5839 15.0899 46.5839H15.2488L15.2306 46.3009C15.2206 46.145 15.1954 46.0078 15.1747 45.9958C15.1538 45.9837 15.1369 45.8814 15.1369 45.7686C15.1369 45.6558 15.1223 45.5634 15.1046 45.5634C15.0868 45.5634 15.0674 45.4488 15.0617 45.3084L15.0511 45.0532L14.8366 45.0354L14.6221 45.0175V45.2305C14.6221 45.3475 14.6066 45.4435 14.5877 45.4435C14.5688 45.4435 14.5534 45.5243 14.5534 45.6235C14.5534 45.9693 14.488 45.8003 14.4778 45.4283L14.4676 45.0532L14.3218 45.0348L14.1758 45.0162V45.8001ZM15.1598 45.0632C15.0727 45.2156 15.1634 45.4435 15.3113 45.4435C15.3716 45.4435 15.3772 45.4916 15.3772 46.0136V46.5839H15.5317H15.6862V46.0136V45.4435H15.7891H15.8921V46.0136V46.5839H16.0465H16.201V45.8037V45.0233H15.6919C15.4118 45.0233 15.1724 45.0411 15.1598 45.0632ZM16.3108 45.0952C16.2676 45.1707 16.2511 46.3093 16.2905 46.489C16.3072 46.5653 16.3684 46.5839 16.5994 46.5839H16.8875V46.404C16.8875 46.2306 16.8818 46.2237 16.733 46.2237C16.6481 46.2237 16.5785 46.1967 16.5785 46.1639C16.5785 46.1309 16.6295 46.1038 16.6918 46.1038C16.835 46.1038 16.8875 46.012 16.8875 45.7615C16.8875 45.5668 16.8848 45.5634 16.733 45.5634C16.537 45.5634 16.5301 45.4564 16.7245 45.4317C16.8614 45.4144 16.871 45.4013 16.8811 45.2182L16.8919 45.0233H16.6219C16.4578 45.0233 16.3358 45.0514 16.3108 45.0952ZM17.2651 45.7179C17.2651 46.5695 17.2708 46.5839 17.6083 46.5839C17.8706 46.5839 17.9516 46.5141 17.9516 46.2883C17.9516 46.2198 17.9671 46.1639 17.9858 46.1639C18.0047 46.1639 18.0202 46.2584 18.0202 46.3738C18.0202 46.5829 18.0211 46.5839 18.1747 46.5839C18.3175 46.5839 18.3292 46.5724 18.3292 46.4305C18.3292 46.3434 18.344 46.2927 18.3635 46.314C18.3823 46.3342 18.3977 46.4034 18.3977 46.4674C18.3977 46.5687 18.4226 46.5839 18.5866 46.5839H18.7754V45.8037V45.0233H18.6238C18.536 45.0233 18.4637 45.0548 18.4522 45.0983C18.4361 45.1584 18.4282 45.1584 18.4121 45.0983C18.398 45.0456 18.2905 45.0233 18.0517 45.0233H17.7113V45.4698C17.7113 45.7156 17.6959 45.9333 17.677 45.9538C17.6581 45.974 17.6426 46.0432 17.6426 46.1073C17.6426 46.1715 17.6272 46.2237 17.6083 46.2237C17.5877 46.2237 17.5739 45.9837 17.5739 45.6235V45.0233H17.4196H17.2651V45.7179ZM18.844 45.8037V46.5839H18.9985H19.153V46.0401C19.153 45.693 19.1653 45.5097 19.1873 45.5335C19.2061 45.554 19.2215 45.6618 19.2215 45.7736C19.2215 45.8853 19.235 45.991 19.2515 46.0089C19.2679 46.0267 19.2908 46.1243 19.3025 46.2261C19.3426 46.5758 19.7708 46.7967 19.7708 46.4674C19.7708 46.4034 19.7863 46.3342 19.8052 46.314C19.8239 46.2935 19.8394 46.1702 19.8394 46.0401C19.8394 45.91 19.8548 45.8037 19.8737 45.8037C19.8926 45.8037 19.9081 45.682 19.9081 45.5335C19.9081 44.9627 19.9748 45.2919 19.9841 45.9087L19.9939 46.554L20.4487 46.5708L20.9035 46.5876V46.4058C20.9035 46.3056 20.9189 46.2237 20.9378 46.2237C20.9567 46.2237 20.9722 46.2662 20.9722 46.3182C20.9722 46.5973 21.814 46.7371 21.9734 46.4848C22.0319 46.3922 22.0363 46.3922 22.0363 46.4848C22.0363 46.5624 22.0699 46.5839 22.1908 46.5839H22.3451V46.0136V45.4435H22.4482H22.5511V46.0136V46.5839H22.7056H22.8601V46.0202V45.4567L22.9802 45.432L23.1004 45.4076V45.9958V46.5839H23.3921H23.6839V46.404C23.6839 46.2306 23.6782 46.2237 23.5294 46.2237C23.4445 46.2237 23.3749 46.1967 23.3749 46.1639C23.3749 46.1309 23.42 46.1038 23.4751 46.1038C23.6477 46.1038 23.6839 46.0506 23.6839 45.7972V45.5634H23.5294C23.3333 45.5634 23.3263 45.4564 23.5208 45.4317C23.6572 45.4147 23.6674 45.4008 23.6773 45.2216L23.6879 45.0296L22.862 45.0267L22.0363 45.0238V45.4732V45.9226L21.9382 45.7431C21.8842 45.6442 21.8147 45.5634 21.7837 45.5634C21.6791 45.5634 21.7264 45.4512 21.8389 45.4323C21.937 45.4157 21.9517 45.3898 21.9611 45.2182L21.9719 45.0233H21.7078C21.4834 45.0233 21.4343 45.0419 21.382 45.1474L21.3203 45.2717L21.2827 45.1484C21.2459 45.0285 21.2213 45.0254 20.4305 45.039L19.6163 45.0532L19.6058 45.3084C19.5955 45.5579 19.5305 45.6773 19.5305 45.447C19.5305 45.383 19.5151 45.3137 19.4962 45.2932C19.4773 45.273 19.4618 45.2038 19.4618 45.1398C19.4618 45.033 19.4359 45.0233 19.153 45.0233H18.844V45.8037ZM23.7524 45.8037V46.5839H23.9069H24.0614V46.0136C24.0614 45.4454 24.0617 45.4435 24.1472 45.4435C24.2327 45.4435 24.233 45.4454 24.233 46.0136V46.5839H24.3703H24.5077V46.0175V45.4512L24.6191 45.4323C24.7172 45.4157 24.7321 45.3898 24.7415 45.2182L24.7523 45.0233H24.2524H23.7524V45.8037ZM25.1255 45.1432C25.1255 45.2093 25.1101 45.2633 25.0912 45.2633C25.0708 45.2633 25.0568 45.4834 25.0568 45.8037C25.0568 46.1007 25.0705 46.3439 25.0871 46.3439C25.1038 46.3439 25.1255 46.3979 25.1354 46.464C25.1516 46.5724 25.1822 46.5839 25.4483 46.5839H25.7434V46.1338V45.6836H25.5889C25.4353 45.6836 25.4344 45.6846 25.4344 45.8937C25.4344 46.0091 25.4189 46.1038 25.4 46.1038C25.3501 46.1038 25.358 45.5894 25.409 45.5152C25.4329 45.4808 25.514 45.4435 25.5893 45.4328C25.7159 45.415 25.727 45.3987 25.7369 45.2182L25.7477 45.0233H25.4366C25.1483 45.0233 25.1255 45.0319 25.1255 45.1432ZM25.8548 45.113C25.7911 45.2397 25.7962 46.3848 25.861 46.4981C25.8943 46.5564 25.9882 46.5839 26.1527 46.5839H26.3956V46.404C26.3956 46.234 26.3879 46.2237 26.2582 46.2237C26.0845 46.2237 26.0776 46.1172 26.2496 46.0923C26.3746 46.0742 26.3786 46.0663 26.3888 45.8187L26.3995 45.5634H26.2601C26.1836 45.5634 26.1209 45.5364 26.1209 45.5034C26.1209 45.4706 26.1827 45.4435 26.2582 45.4435C26.3923 45.4435 26.3956 45.4383 26.3956 45.2334V45.0233L26.1467 45.0254C25.976 45.027 25.8842 45.0545 25.8548 45.113ZM26.4985 45.8037V46.5839H26.6357C26.7535 46.5839 26.7731 46.5656 26.7731 46.4548V46.3255L26.8372 46.4548C26.8873 46.5558 26.9398 46.5839 27.0775 46.5839H27.2536V46.0136V45.4435H27.3566H27.4595V46.0136V46.5839H27.614H27.7685V46.0136C27.7685 45.4834 27.7733 45.4435 27.8372 45.4435C27.8927 45.4435 27.9058 45.4034 27.9058 45.2332V45.0228L27.4273 45.027L26.9488 45.0312L26.9359 45.2221L26.9231 45.4134L26.879 45.2182C26.8378 45.0351 26.8247 45.0233 26.6668 45.0233H26.4985V45.8037ZM20.5946 45.4735C20.5946 45.5401 20.5546 45.5634 20.4401 45.5634C20.2442 45.5634 20.2375 45.458 20.4316 45.4273C20.5118 45.4147 20.5813 45.3997 20.5861 45.394C20.5907 45.3882 20.5946 45.4239 20.5946 45.4735ZM5.57991 45.5291C5.67201 45.6901 5.61921 46.2237 5.51121 46.2237C5.50041 46.2237 5.49156 46.0482 5.49156 45.8336C5.49156 45.4226 5.50086 45.3908 5.57991 45.5291ZM9.28701 45.5291C9.38826 45.7064 9.32436 46.2237 9.20121 46.2237C9.17871 46.2237 9.16431 46.0711 9.16431 45.8336C9.16431 45.4357 9.19296 45.3648 9.28701 45.5291ZM20.9812 45.4792C21.0088 45.5275 20.9728 45.6836 20.9342 45.6836C20.9173 45.6836 20.9035 45.6295 20.9035 45.5634C20.9035 45.4464 20.9399 45.4071 20.9812 45.4792ZM13.0982 46.0873C13.01 46.2416 12.9481 45.7741 13.0345 45.6062C13.0928 45.4931 13.0949 45.4981 13.1053 45.773C13.111 45.9291 13.108 46.0705 13.0982 46.0873ZM21.4184 45.8635C21.4184 45.8966 21.457 45.9236 21.5042 45.9236C21.5576 45.9236 21.59 45.9577 21.59 46.0136C21.59 46.0632 21.6055 46.1038 21.6244 46.1038C21.6433 46.1038 21.6587 46.1309 21.6587 46.1639C21.6587 46.1967 21.5755 46.2237 21.4739 46.2237C21.2855 46.2237 21.2263 46.1212 21.2729 45.8764C21.2896 45.789 21.4184 45.7778 21.4184 45.8635ZM20.5946 46.1338C20.5946 46.2004 20.5546 46.2237 20.4401 46.2237C20.2625 46.2237 20.2309 46.1233 20.3972 46.0871C20.4586 46.0739 20.528 46.0587 20.5517 46.0532C20.5753 46.048 20.5946 46.0842 20.5946 46.1338Z" fill="#ACACAC"/>
<path fill-rule="evenodd" clip-rule="evenodd" d="M20.7491 7.26393C20.7374 7.29699 20.6126 7.32401 20.4719 7.32401C20.3312 7.32401 20.1893 7.34945 20.1564 7.38093C20.1237 7.41215 20.0235 7.45439 19.9338 7.47459C19.8441 7.49479 19.7708 7.53676 19.7708 7.56772C19.7708 7.59867 19.7166 7.62412 19.6506 7.62412C19.5845 7.62412 19.5305 7.65114 19.5305 7.68419C19.5305 7.71698 19.4774 7.744 19.4124 7.744C19.3473 7.744 19.2846 7.77103 19.2731 7.80408C19.2614 7.83713 19.2141 7.86415 19.1681 7.86415C19.1219 7.86415 19.0842 7.89117 19.0842 7.92423C19.0842 7.95728 19.0547 7.9843 19.0184 7.9843C18.9479 7.9843 18.7314 8.16479 18.7124 8.23929C18.7061 8.26421 18.6713 8.28441 18.6351 8.28441C18.599 8.28441 18.5694 8.31144 18.5694 8.34449C18.5694 8.37754 18.5307 8.40456 18.4836 8.40456C18.4364 8.40456 18.3977 8.43158 18.3977 8.46438C18.3977 8.49743 18.3669 8.52445 18.3291 8.52445C18.2913 8.52445 18.2604 8.55147 18.2604 8.58453C18.2604 8.61758 18.2291 8.6446 18.1907 8.6446C18.1524 8.6446 18.1121 8.685 18.1013 8.73458C18.0903 8.78416 18.0557 8.82456 18.024 8.82456C17.9925 8.82456 17.9444 8.8786 17.9172 8.94471C17.8899 9.01082 17.8431 9.06486 17.8131 9.06486C17.7831 9.06486 17.7254 9.1189 17.6849 9.18475C17.6444 9.25086 17.5985 9.3049 17.583 9.3049C17.5676 9.3049 17.5305 9.35212 17.5007 9.41009C17.4192 9.56776 17.3025 9.72516 17.267 9.72516C17.2196 9.72516 16.2009 11.525 16.2009 11.609C16.2009 11.6444 16.1211 11.8251 16.0379 11.9786C16.0143 12.0222 15.995 12.1003 15.995 12.152C15.995 12.204 15.9797 12.2465 15.9611 12.2465C15.9233 12.2465 15.7547 12.6885 15.7547 12.7879C15.7547 12.8231 15.7238 12.9096 15.6861 12.9807C15.6483 13.0516 15.6174 13.1583 15.6174 13.2181C15.6174 13.278 15.6035 13.327 15.5865 13.327C15.5694 13.327 15.527 13.4485 15.4922 13.597C15.4572 13.7454 15.417 13.8669 15.4029 13.8672C15.3887 13.8672 15.3771 13.9482 15.3771 14.0474C15.3771 14.1463 15.3617 14.2273 15.3428 14.2273C15.3239 14.2273 15.3084 14.2798 15.3084 14.3441C15.3084 14.4081 15.2931 14.4771 15.2742 14.4976C15.2553 14.518 15.2399 14.6025 15.2399 14.6856C15.2399 14.7685 15.2166 14.8769 15.1884 14.9265C15.1601 14.9758 15.1368 15.082 15.1368 15.1623C15.1368 15.2423 15.1214 15.3079 15.1025 15.3079C15.0837 15.3079 15.0683 15.4144 15.0683 15.5445C15.0683 15.6746 15.0528 15.7979 15.0339 15.8181C15.015 15.8386 14.9996 15.9619 14.9996 16.092C14.9996 16.2221 14.9841 16.3286 14.9652 16.3286C14.9459 16.3286 14.9309 16.4973 14.9309 16.7151C14.9309 16.9278 14.9154 17.1185 14.8967 17.139C14.8752 17.1621 14.8623 17.74 14.8623 18.6734C14.8623 19.6314 14.8746 20.1705 14.8967 20.1705C14.9165 20.1705 14.9309 20.3607 14.9309 20.6207C14.9309 20.8809 14.9454 21.0709 14.9652 21.0709C14.9841 21.0709 14.9996 21.1926 14.9996 21.3411C14.9996 21.4896 15.015 21.6113 15.0339 21.6113C15.0528 21.6113 15.0683 21.6805 15.0683 21.765C15.0683 21.9688 15.1709 22.5116 15.2094 22.5116C15.2262 22.5116 15.2399 22.6063 15.2399 22.7217C15.2399 22.8374 15.2553 22.9319 15.2742 22.9319C15.2931 22.9319 15.3084 22.9843 15.3084 23.0484C15.3084 23.1126 15.3239 23.1816 15.3428 23.2021C15.3617 23.2225 15.3771 23.2915 15.3771 23.3558C15.3771 23.4198 15.3926 23.4723 15.4115 23.4723C15.4304 23.4723 15.4458 23.5263 15.4458 23.5922C15.4458 23.6583 15.4613 23.7123 15.4802 23.7123C15.4991 23.7123 15.5144 23.7672 15.5144 23.8343C15.5144 23.9015 15.5376 23.9718 15.566 23.9907C15.5943 24.0098 15.6174 24.0764 15.6174 24.1389C15.6174 24.2016 15.6329 24.2527 15.6518 24.2527C15.6707 24.2527 15.6861 24.2923 15.6861 24.3409C15.6861 24.4351 15.7998 24.8147 15.8681 24.9484C15.9689 25.146 15.995 25.2121 15.995 25.2706C15.995 25.305 16.0104 25.3333 16.0293 25.3333C16.0482 25.3333 16.0637 25.3708 16.0637 25.417C16.0637 25.4629 16.1331 25.6295 16.2182 25.7866C16.3031 25.944 16.3725 26.0983 16.3725 26.1297C16.3725 26.2116 17.1486 27.5542 17.1959 27.5542C17.2176 27.5542 17.2863 27.6489 17.3486 27.7643C17.411 27.88 17.4795 27.9745 17.5011 27.9745C17.5226 27.9745 17.5887 28.0555 17.648 28.1547C17.7072 28.2536 17.7843 28.3347 17.8193 28.3347C17.8542 28.3347 17.8829 28.3753 17.8829 28.4246C17.8829 28.4747 17.9133 28.5149 17.9516 28.5149C17.9892 28.5149 18.0201 28.5419 18.0201 28.5747C18.0201 28.6078 18.0434 28.6348 18.0717 28.6348C18.0999 28.6348 18.1232 28.6618 18.1232 28.6948C18.1232 28.7279 18.1541 28.7549 18.1917 28.7549C18.2295 28.7549 18.2604 28.7819 18.2604 28.815C18.2604 28.8481 18.2913 28.8751 18.3291 28.8751C18.3669 28.8751 18.3977 28.9021 18.3977 28.9349C18.3977 28.9679 18.4364 28.995 18.4836 28.995C18.5307 28.995 18.5694 29.0201 18.5694 29.0506C18.5694 29.1295 18.7706 29.2951 18.8664 29.2951C18.9107 29.2951 18.947 29.3221 18.947 29.3551C18.947 29.3882 18.977 29.4152 19.0136 29.4152C19.0502 29.4152 19.0898 29.4422 19.1015 29.4753C19.113 29.5084 19.1681 29.5354 19.2236 29.5354C19.2791 29.5354 19.3245 29.5624 19.3245 29.5954C19.3245 29.6285 19.3847 29.6553 19.4582 29.6553C19.5453 29.6553 19.5986 29.6867 19.6115 29.7455C19.6245 29.8045 19.6781 29.8355 19.7676 29.8355C19.8426 29.8355 19.9136 29.8625 19.9253 29.8956C19.9368 29.9286 20.0228 29.9556 20.1161 29.9556C20.2092 29.9556 20.2856 29.9827 20.2856 30.0154C20.2856 30.0516 20.423 30.0755 20.6289 30.0755C20.8349 30.0755 20.9721 30.0997 20.9721 30.1356C20.9721 30.1752 22.1507 30.1957 24.4389 30.1957H27.9057V23.5922C27.9057 19.2301 27.8941 16.9889 27.8713 16.9889C27.852 16.9889 27.8371 16.8187 27.8371 16.5986C27.8371 16.3785 27.8221 16.2085 27.8028 16.2085C27.7839 16.2085 27.7684 16.087 27.7684 15.9383C27.7684 15.7898 27.753 15.6681 27.7341 15.6681C27.7152 15.6681 27.6997 15.5752 27.6997 15.4616C27.6997 15.348 27.6843 15.2384 27.6654 15.2179C27.6466 15.1975 27.6312 15.1169 27.6312 15.0385C27.6312 14.9603 27.6079 14.8559 27.5796 14.8063C27.5512 14.7567 27.5281 14.6602 27.5281 14.592C27.5281 14.5235 27.5127 14.4676 27.4938 14.4676C27.4749 14.4676 27.4594 14.3866 27.4594 14.2874C27.4594 14.1885 27.444 14.1075 27.4252 14.1075C27.4063 14.1075 27.3909 14.055 27.3909 13.991C27.3909 13.9267 27.3754 13.8577 27.3565 13.8373C27.3376 13.8168 27.3222 13.7478 27.3222 13.6835C27.3222 13.6195 27.3067 13.5671 27.2878 13.5671C27.2689 13.5671 27.2535 13.5122 27.2535 13.4451C27.2535 13.3782 27.2304 13.3076 27.202 13.2887C27.1737 13.2696 27.1506 13.2029 27.1506 13.1405C27.1506 13.0781 27.1351 13.0269 27.1162 13.0269C27.0973 13.0269 27.0819 12.9729 27.0819 12.9068C27.0819 12.8406 27.0688 12.7866 27.0529 12.7866C27.037 12.7866 26.9883 12.6651 26.9446 12.5167C26.901 12.3679 26.8444 12.2465 26.8191 12.2465C26.7937 12.2465 26.773 12.1974 26.773 12.1376C26.773 12.0778 26.7421 11.971 26.7043 11.9002C26.6665 11.8291 26.6356 11.743 26.6356 11.7084C26.6356 11.6095 25.4743 9.60501 25.417 9.60501C25.3888 9.60501 25.3657 9.57799 25.3657 9.54493C25.3657 9.51214 25.3486 9.48512 25.3276 9.48512C25.3068 9.48512 25.2594 9.41744 25.2222 9.33507C25.1851 9.25243 25.1326 9.18475 25.1058 9.18475C25.0788 9.18475 25.0567 9.15773 25.0567 9.12494C25.0567 9.09188 25.0336 9.06486 25.0053 9.06486C24.9769 9.06486 24.9538 9.03784 24.9538 9.00479C24.9538 8.97173 24.9229 8.94471 24.8851 8.94471C24.8473 8.94471 24.8164 8.91769 24.8164 8.88464C24.8164 8.85158 24.7984 8.82456 24.7762 8.82456C24.7542 8.82456 24.7117 8.78626 24.6819 8.73904C24.5928 8.59869 24.2311 8.28441 24.1584 8.28441C24.1212 8.28441 24.0675 8.24375 24.039 8.19391C24.0105 8.14407 23.9745 8.11678 23.9592 8.13331C23.9437 8.1501 23.9223 8.12334 23.9115 8.07402C23.9007 8.0247 23.8614 7.9843 23.8242 7.9843C23.787 7.9843 23.747 7.95728 23.7352 7.92423C23.7235 7.89117 23.6686 7.86415 23.6131 7.86415C23.5575 7.86415 23.5122 7.83713 23.5122 7.80408C23.5122 7.77103 23.4658 7.744 23.4091 7.744C23.3524 7.744 23.3063 7.71698 23.3063 7.68419C23.3063 7.65114 23.2367 7.62412 23.1518 7.62412C23.0667 7.62412 22.9972 7.59867 22.9972 7.56772C22.9972 7.53676 22.9239 7.49479 22.8342 7.47459C22.7445 7.45439 22.6443 7.41215 22.6116 7.38093C22.5787 7.34945 22.4523 7.32401 22.3303 7.32401C22.2085 7.32401 22.0993 7.29699 22.0876 7.26393C22.0747 7.22721 21.8133 7.20386 21.4184 7.20386C21.0233 7.20386 20.762 7.22721 20.7491 7.26393ZM21.59 15.0679C21.59 15.1009 21.6749 15.1279 21.7788 15.1279C21.8826 15.1279 21.9675 15.155 21.9675 15.188C21.9675 15.2211 22.0122 15.2481 22.0668 15.2481C22.1234 15.2481 22.1746 15.2867 22.1859 15.3381C22.1967 15.3877 22.2371 15.4281 22.2753 15.4281C22.3137 15.4281 22.3451 15.4551 22.3451 15.4881C22.3451 15.5212 22.3725 15.5482 22.4061 15.5482C22.4397 15.5482 22.4895 15.6022 22.5166 15.6681C22.5439 15.7342 22.5859 15.7882 22.6101 15.7882C22.6342 15.7882 22.654 15.8153 22.654 15.8483C22.654 15.8814 22.6849 15.9084 22.7226 15.9084C22.7604 15.9084 22.7913 15.938 22.7913 15.9742C22.7913 16.0104 22.8348 16.112 22.8877 16.1993C22.9408 16.2869 22.9944 16.4058 23.0069 16.4635C23.0193 16.5215 23.0454 16.5687 23.0649 16.5687C23.0842 16.5687 23.1003 16.6091 23.1003 16.6587C23.1003 16.7082 23.1157 16.7486 23.1345 16.7486C23.1534 16.7486 23.1688 16.8027 23.1688 16.8688C23.1688 16.9349 23.1843 16.9889 23.2032 16.9889C23.2221 16.9889 23.2375 17.043 23.2375 17.1088C23.2375 17.1749 23.253 17.229 23.2719 17.229C23.2908 17.229 23.3063 17.2814 23.3063 17.3455C23.3063 17.4097 23.3196 17.4766 23.3359 17.4942C23.3524 17.512 23.3757 17.6351 23.3878 17.7678C23.4 17.9008 23.4252 18.0094 23.4439 18.0094C23.4656 18.0094 23.4778 18.7768 23.4778 20.1404V22.2716H22.1926C21.3729 22.2716 20.8998 22.2498 20.8863 22.2115C20.8746 22.1785 20.8197 22.1514 20.7641 22.1514C20.7085 22.1514 20.6631 22.1244 20.6631 22.0916C20.6631 22.0586 20.6333 22.0315 20.5965 22.0315C20.5599 22.0315 20.5203 22.0045 20.5088 21.9715C20.4971 21.9384 20.466 21.9114 20.4396 21.9114C20.4132 21.9114 20.3552 21.8505 20.3105 21.7763C20.2658 21.7021 20.1848 21.5872 20.1305 21.5213C20.0156 21.3817 19.7708 20.9426 19.7708 20.8762C19.7708 20.8513 19.7475 20.8308 19.7193 20.8308C19.6907 20.8308 19.6677 20.7776 19.6677 20.7107C19.6677 20.6448 19.6523 20.5908 19.6334 20.5908C19.6146 20.5908 19.5992 20.5501 19.5992 20.5006C19.5992 20.4512 19.5837 20.4106 19.5648 20.4106C19.5459 20.4106 19.5305 20.3565 19.5305 20.2907C19.5305 20.2246 19.515 20.1705 19.4961 20.1705C19.4772 20.1705 19.4618 20.0911 19.4618 19.994C19.4618 19.8969 19.4463 19.8007 19.4274 19.7802C19.4087 19.76 19.3932 19.6493 19.3932 19.5346C19.3932 19.4048 19.3737 19.3132 19.3416 19.2917C19.3013 19.2647 19.2902 19.1432 19.2902 18.7306C19.2902 18.336 19.3031 18.1855 19.3416 18.1296C19.37 18.0884 19.3932 17.9651 19.3932 17.8554C19.3932 17.746 19.4087 17.6395 19.4274 17.6191C19.4463 17.5989 19.4618 17.5026 19.4618 17.4055C19.4618 17.3085 19.4772 17.229 19.4961 17.229C19.515 17.229 19.5305 17.1873 19.5305 17.1364C19.5305 17.0855 19.5614 16.9858 19.5992 16.915C19.6368 16.8441 19.6677 16.7371 19.6677 16.6773C19.6677 16.6175 19.691 16.5687 19.7193 16.5687C19.7475 16.5687 19.7712 16.5485 19.7717 16.5236C19.7732 16.4582 20.0705 15.9084 20.1044 15.9084C20.1203 15.9084 20.1554 15.8543 20.1827 15.7882C20.2098 15.7221 20.2457 15.6681 20.2622 15.6681C20.2787 15.6681 20.3342 15.6159 20.3853 15.5521C20.4366 15.4884 20.5202 15.4178 20.5709 15.3955C20.6217 15.3732 20.6631 15.331 20.6631 15.3016C20.6631 15.272 20.7018 15.2481 20.7491 15.2481C20.7962 15.2481 20.8348 15.2211 20.8348 15.188C20.8348 15.155 20.9111 15.1279 21.0044 15.1279C21.0977 15.1279 21.1836 15.1009 21.1952 15.0679C21.2069 15.0348 21.3004 15.0078 21.4032 15.0078C21.5059 15.0078 21.59 15.0348 21.59 15.0679Z" fill="#EC9C04"/>
</g>
<defs>
<clipPath id="clip0_41_307">
<rect width="60" height="60" fill="white"/>
</clipPath>
</defs>
</svg>
